<svg width="65" height="43" viewBox="0 0 65 43" fill="none" xmlns="http://www.w3.org/2000/svg">
<path d="M55.3568 0.0124852C49.9211 -0.280772 45.9946 4.64072 45.7234 9.64636C45.9176 13.2273 47.5528 15.7671 49.7921 17.2803C47.6218 20.5408 45.4497 23.803 43.2778 27.064C42.0637 26.4293 40.7098 26.0449 39.3472 25.9721C37.4229 25.8679 35.7178 26.518 34.3456 27.6072C31.8592 24.8296 29.3721 22.0527 26.887 19.2749C27.3149 18.3838 27.5794 17.4091 27.6328 16.4275C27.834 12.6877 24.4467 9.98247 21.0033 9.79671C17.2641 9.59531 14.5581 12.9841 14.3731 16.4275C14.429 17.4627 14.6902 18.4046 15.0948 19.2474C13.052 21.616 11.0085 23.9839 8.96568 26.3525C8.06282 25.7142 6.95804 25.3209 5.70932 25.2529C2.49375 25.08 0.167448 27.9943 0.00734982 30.9556C-0.165834 34.1709 2.75032 36.4967 5.70932 36.6556C8.92489 36.829 11.2517 33.9144 11.41 30.9556C11.3525 29.8755 11.0367 28.9126 10.5454 28.0841C12.1022 26.2797 13.6593 24.4742 15.2175 22.669C15.6436 22.1738 16.0701 21.6802 16.4967 21.1865C17.6497 22.277 19.1968 22.9602 21.0021 23.058C22.8034 23.1544 24.3616 22.4137 25.5159 21.2399C27.9196 23.9272 30.3255 26.6135 32.729 29.3C31.6458 30.7837 30.9787 32.6025 30.8802 34.4396C31.1388 39.2261 34.5594 42.6449 39.3462 42.9043C44.1224 43.1608 47.5723 38.8366 47.8109 34.4396C47.9425 31.9888 46.8646 29.8927 45.1933 28.3943C47.4237 25.0446 49.653 21.6951 51.8834 18.3461C57.3631 20.3219 64.5668 17.4242 64.9873 9.64765C65.2819 4.2102 60.3611 0.282138 55.3568 0.0124852Z" fill="url(#paint0_linear)"/>
<defs>
<linearGradient id="paint0_linear" x1="6.06786" y1="8.879e-05" x2="66.6427" y2="24.2515" gradientUnits="userSpaceOnUse">
<stop stop-color="#6A11CB"/>
<stop offset="1" stop-color="#2575FC"/>
</linearGradient>
</defs>
</svg>
