<svg width="53" height="47" viewBox="0 0 53 47" fill="none" xmlns="http://www.w3.org/2000/svg">
<path d="M47.5097 5.0989H23.7775L22.8191 3.25229C21.9359 1.27397 19.972 0 17.8055 0H5.49046C2.45812 0.00013131 0 2.45812 0 5.4906V19.611V31.5151V41.2823C0 43.9598 2.17029 46.13 4.8477 46.13H48.1523C50.8296 46.13 53 43.9598 53 41.2823V31.5151V19.611V10.5894C53 7.55715 50.5419 5.0989 47.5097 5.0989ZM17.7895 5.51515C17.8316 5.60904 17.8765 5.70161 17.9239 5.79287L18.8824 7.63962C19.831 9.46693 21.7184 10.6138 23.7774 10.6138L47.4848 10.6141V39.5218H5.51502V5.51502L17.7895 5.51515Z" fill="url(#paint0_linear)"/>
<path d="M18 25.0649C18 25.8934 17.3284 26.5649 16.5 26.5649C15.6716 26.5649 15 25.8934 15 25.0649C15 24.2365 15.6716 23.5649 16.5 23.5649C17.3284 23.5649 18 24.2365 18 25.0649ZM28 25.0649C28 25.8934 27.3284 26.5649 26.5 26.5649C25.6716 26.5649 25 25.8934 25 25.0649C25 24.2365 25.6716 23.5649 26.5 23.5649C27.3284 23.5649 28 24.2365 28 25.0649ZM38 25.0649C38 25.8934 37.3284 26.5649 36.5 26.5649C35.6716 26.5649 35 25.8934 35 25.0649C35 24.2365 35.6716 23.5649 36.5 23.5649C37.3284 23.5649 38 24.2365 38 25.0649Z" stroke="url(#paint1_linear)" stroke-width="4"/>
<defs>
<linearGradient id="paint0_linear" x1="4.94764" y1="9.54414e-05" x2="57.4169" y2="15.9346" gradientUnits="userSpaceOnUse">
<stop stop-color="#6A11CB"/>
<stop offset="1" stop-color="#2575FC"/>
</linearGradient>
<linearGradient id="paint1_linear" x1="7" y1="22.5649" x2="61.5" y2="22.5649" gradientUnits="userSpaceOnUse">
<stop offset="0.0878719" stop-color="#6A11CB"/>
<stop offset="1" stop-color="#3163F3"/>
</linearGradient>
</defs>
</svg>
