<svg width="45" height="50" viewBox="0 0 45 50" fill="none" xmlns="http://www.w3.org/2000/svg">
<path d="M41.9598 0H2.20891C1.61029 0 1.09261 0.206339 0.655961 0.618273C0.218621 1.03151 0 1.5198 0 2.08341V27.084C0 28.9508 0.384733 30.8007 1.15617 32.6344C1.92692 34.468 2.88135 36.0956 4.02055 37.5173C5.15916 38.9392 6.51589 40.3227 8.09242 41.6676C9.66778 43.013 11.1229 44.1305 12.4572 45.0206C13.791 45.9097 15.1833 46.7501 16.6324 47.5434C18.0815 48.3343 19.1107 48.8712 19.7209 49.1543C20.3304 49.4354 20.819 49.653 21.1875 49.8058C21.4635 49.9357 21.7619 50 22.0845 50C22.4064 50 22.7055 49.9351 22.9814 49.8058C23.3493 49.653 23.838 49.4358 24.448 49.1543C25.0574 48.8706 26.0868 48.3343 27.5365 47.5434C28.9856 46.7501 30.3773 45.9097 31.7116 45.0206C33.0454 44.1305 34.5006 43.013 36.0766 41.6676C37.6519 40.3222 39.0098 38.9385 40.1484 37.5173C41.2871 36.0955 42.2415 34.468 43.0127 32.6344C43.7835 30.8007 44.1688 28.9507 44.1688 27.084V2.08285C44.1688 1.51924 43.9496 1.03151 43.5128 0.617807C43.075 0.205687 42.5572 0 41.9598 0ZM38.4891 26.5478C38.4891 27.9342 38.2027 29.3086 37.6301 30.6712C37.0574 32.0331 36.3484 33.2423 35.5026 34.2984C34.657 35.3543 33.6482 36.3824 32.4782 37.3818C31.3075 38.3813 30.2262 39.2115 29.2355 39.8726C28.2444 40.5332 27.2107 41.1571 26.1337 41.7469C25.0573 42.3344 24.292 42.7333 23.8395 42.9436C23.3865 43.1522 23.0235 43.3141 22.7506 43.4273C22.5459 43.5237 22.3236 43.5721 22.0844 43.5721C21.8451 43.5721 21.6228 43.5237 21.4181 43.4273C21.1445 43.314 20.7814 43.1527 20.3291 42.9436C19.876 42.7328 19.1113 42.3344 18.0349 41.7469C16.9585 41.1577 15.9244 40.5332 14.9331 39.8726C13.942 39.2115 12.8606 38.3813 11.6906 37.3818C10.5201 36.3824 9.51183 35.3548 8.66617 34.2984C7.81991 33.2423 7.11075 32.0331 6.53869 30.6712C5.96603 29.3092 5.6797 27.9347 5.6797 26.5478V7.97628C5.6797 7.55801 5.84216 7.19505 6.16659 6.88787C6.49102 6.58181 6.87575 6.42854 7.32029 6.42854H36.8489C37.2929 6.42854 37.6776 6.58181 38.0026 6.88787C38.327 7.19505 38.4896 7.55745 38.4896 7.97628V26.5479H38.4891V26.5478Z" fill="url(#paint0_linear)"/>
<path d="M34.1329 17.5645L31.9394 15.371C31.6386 15.07 31.2728 14.9194 30.8428 14.9194C30.4125 14.9194 30.0467 15.07 29.7459 15.371L19.1651 25.9678L14.4232 21.2096C14.122 20.9085 13.7565 20.7582 13.3265 20.7582C12.8963 20.7582 12.5307 20.9085 12.2296 21.2096L10.0361 23.4032C9.73497 23.7043 9.58447 24.0699 9.58447 24.5001C9.58447 24.93 9.73497 25.296 10.0361 25.597L15.8747 31.4355L18.0684 33.629C18.3693 33.9302 18.735 34.0806 19.1651 34.0806C19.5951 34.0806 19.9608 33.9298 20.2619 33.629L22.4555 31.4355L34.1329 19.7582C34.4337 19.4571 34.5845 19.0914 34.5845 18.6612C34.5847 18.2313 34.4337 17.8656 34.1329 17.5645Z" fill="url(#paint1_linear)"/>
<defs>
<linearGradient id="paint0_linear" x1="4.12324" y1="0.000103448" x2="49.4133" y2="10.5754" gradientUnits="userSpaceOnUse">
<stop stop-color="#6A11CB"/>
<stop offset="1" stop-color="#2575FC"/>
</linearGradient>
<linearGradient id="paint1_linear" x1="11.9183" y1="14.9195" x2="36.0772" y2="23.2512" gradientUnits="userSpaceOnUse">
<stop stop-color="#6A11CB"/>
<stop offset="1" stop-color="#2575FC"/>
</linearGradient>
</defs>
</svg>
