<svg width="52" height="52" viewBox="0 0 52 52" fill="none" xmlns="http://www.w3.org/2000/svg">
<path d="M16.4193 0C14.7625 0 13.4194 1.34315 13.4194 3V10.4193C13.4194 12.0762 12.0762 13.4194 10.4194 13.4194H3C1.34315 13.4194 0 14.7625 0 16.4194V49C0 50.6569 1.34315 52 3 52H35.5807C37.2375 52 38.5807 50.6569 38.5807 49V41.5807C38.5807 39.9238 39.9238 38.5807 41.5807 38.5807H49C50.6569 38.5807 52 37.2375 52 35.5807V3C52 1.34314 50.6569 0 49 0H16.4193ZM33.5484 43.9678C33.5484 45.6246 32.2053 46.9678 30.5484 46.9678H8.03222C6.37536 46.9678 5.03222 45.6246 5.03222 43.9678V21.4516C5.03222 19.7947 6.37537 18.4516 8.03222 18.4516H10.4194C12.0762 18.4516 13.4194 19.7947 13.4194 21.4516V35.5807C13.4194 37.2375 14.7625 38.5807 16.4194 38.5807H30.5484C32.2053 38.5807 33.5484 39.9238 33.5484 41.5807V43.9678ZM33.5484 33.5484H21.4516C19.7947 33.5484 18.4516 32.2053 18.4516 30.5484V21.4516C18.4516 19.7947 19.7947 18.4516 21.4516 18.4516H30.5483C32.2052 18.4516 33.5483 19.7947 33.5483 21.4516V33.5483C33.5483 33.5484 33.5484 33.5484 33.5484 33.5484ZM46.9678 33.5484H41.5807C39.9238 33.5484 38.5807 32.2053 38.5807 30.5484V16.4193C38.5807 14.7625 37.2375 13.4194 35.5807 13.4194H21.4516C19.7947 13.4194 18.4516 12.0762 18.4516 10.4194V8.03222C18.4516 6.37536 19.7947 5.03222 21.4516 5.03222H43.9677C45.6245 5.03222 46.9677 6.37536 46.9677 8.03222V33.5483C46.9677 33.5484 46.9677 33.5484 46.9678 33.5484Z" fill="url(#paint0_linear)"/>
<defs>
<linearGradient id="paint0_linear" x1="4.85429" y1="0.000107586" x2="57.4095" y2="13.8919" gradientUnits="userSpaceOnUse">
<stop stop-color="#6A11CB"/>
<stop offset="1" stop-color="#2575FC"/>
</linearGradient>
</defs>
</svg>
