<svg width="56" height="56" viewBox="0 0 56 56" fill="none" xmlns="http://www.w3.org/2000/svg">
<path d="M28 0C12.5606 0 0 12.5608 0 28C0 43.4392 12.5606 56 28 56C43.4394 56 56 43.4392 56 28C56 12.5608 43.4394 0 28 0ZM28 50.5807C15.5491 50.5807 5.41931 40.451 5.41931 28C5.41931 15.549 15.5491 5.41931 28 5.41931C40.4509 5.41931 50.5807 15.5491 50.5807 28C50.5807 40.4509 40.4509 50.5807 28 50.5807Z" fill="url(#paint0_linear)"/>
<path d="M28.0002 25.2906C27.0041 25.2906 26.1937 24.4802 26.1937 23.4841C26.1937 22.4881 27.0041 21.6777 28.0002 21.6777C28.9962 21.6777 29.8066 22.4881 29.8066 23.4841H35.2259C35.2259 20.4578 33.3549 17.8617 30.7098 16.7874V11.7422H25.2905V16.7874C22.6453 17.8617 20.7744 20.4577 20.7744 23.4841C20.7744 27.4685 24.016 30.71 28.0003 30.71C28.9964 30.71 29.8067 31.5204 29.8067 32.5164C29.8067 33.5125 28.9964 34.3229 28.0003 34.3229C27.0042 34.3229 26.1938 33.5125 26.1938 32.5164H20.7745C20.7745 35.5427 22.6455 38.1389 25.2906 39.2131V44.2584H30.7099V39.2131C33.3552 38.1389 35.226 35.5428 35.226 32.5164C35.226 28.532 31.9845 25.2906 28.0002 25.2906Z" fill="url(#paint1_linear)"/>
<defs>
<linearGradient id="paint0_linear" x1="5.2277" y1="0.000115862" x2="61.8256" y2="14.9605" gradientUnits="userSpaceOnUse">
<stop stop-color="#6A11CB"/>
<stop offset="1" stop-color="#2575FC"/>
</linearGradient>
<linearGradient id="paint1_linear" x1="22.1235" y1="11.7423" x2="37.5372" y2="13.553" gradientUnits="userSpaceOnUse">
<stop stop-color="#6A11CB"/>
<stop offset="1" stop-color="#2575FC"/>
</linearGradient>
</defs>
</svg>
