<svg width="53" height="48" viewBox="0 0 53 48" fill="none" xmlns="http://www.w3.org/2000/svg">
<path d="M24.3122 25.1394C25.2191 22.9904 25.9878 21.3046 26.6188 20.0821C27.092 19.1753 27.536 18.4112 27.95 17.79C28.3637 17.1689 28.8668 16.5626 29.4581 15.9712C30.0501 15.3796 30.73 14.9355 31.4994 14.64C32.2679 14.3443 33.1255 14.1964 34.0724 14.1964H41.6433V19.875C41.6433 20.1313 41.7368 20.3533 41.924 20.5404C42.1112 20.7278 42.3331 20.8213 42.589 20.8213C42.8655 20.8213 43.0924 20.7329 43.2689 20.5553L52.7335 11.0913C52.9115 10.9137 53.0001 10.6872 53.0001 10.411C53.0001 10.1349 52.9115 9.9083 52.7335 9.73002L43.2988 0.295132C43.0627 0.0981011 42.8251 0 42.5889 0C42.3125 0 42.0862 0.0885707 41.9083 0.26623C41.7318 0.443682 41.6432 0.670236 41.6432 0.946307V6.62456H34.0723C32.7312 6.62456 31.4695 6.78761 30.2861 7.11289C29.1028 7.43817 28.0527 7.85201 27.136 8.35505C26.219 8.85789 25.3319 9.53309 24.474 10.3811C23.6163 11.2287 22.8866 12.0473 22.2856 12.8359C21.6843 13.6243 21.0531 14.6101 20.3927 15.7933C19.7325 16.9763 19.2 18.0116 18.7958 18.8988C18.3915 19.7861 17.9036 20.8805 17.3318 22.1819C16.4247 24.331 15.6557 26.0171 15.0249 27.2394C14.5518 28.1463 14.1078 28.9106 13.694 29.5316C13.2801 30.1527 12.7769 30.7589 12.1855 31.3503C11.5939 31.9424 10.9136 32.3862 10.1447 32.6819C9.37592 32.9776 8.51797 33.1257 7.57167 33.1257H0.946795C0.67062 33.1257 0.443755 33.2136 0.266511 33.3915C0.0894732 33.5688 0.000488281 33.795 0.000488281 34.0714V39.7506C0.000488281 40.0264 0.089784 40.2533 0.267236 40.4312C0.444791 40.6085 0.67176 40.6971 0.94752 40.6971H7.5726C8.91369 40.6971 10.1753 40.534 11.3586 40.2085C12.5416 39.8831 13.5918 39.469 14.5083 38.9664C15.4254 38.4633 16.3126 37.7879 17.1703 36.9399C18.0279 36.0927 18.7578 35.2738 19.359 34.4854C19.96 33.6966 20.5911 32.711 21.2517 31.5281C21.912 30.3447 22.4447 29.3096 22.8487 28.4225C23.2526 27.5352 23.7404 26.4412 24.3122 25.1394Z" fill="url(#paint0_linear)"/>
<path d="M0.946306 14.1959H7.57138C8.43896 14.1959 9.24231 14.3389 9.98185 14.625C10.7214 14.9112 11.3424 15.256 11.8451 15.6604C12.348 16.0649 12.8507 16.6217 13.3535 17.3314C13.8563 18.0415 14.2556 18.6677 14.5514 19.2096C14.8469 19.752 15.2117 20.4669 15.6455 21.354C17.164 17.7852 18.5144 15.0938 19.6975 13.2798C16.5427 8.84351 12.5007 6.625 7.57128 6.625H0.946306C0.670132 6.625 0.443267 6.71357 0.266022 6.89123C0.0889849 7.06847 0 7.29503 0 7.5712V13.2499C0 13.5261 0.0885706 13.7524 0.266022 13.9297C0.443682 14.1074 0.670546 14.1959 0.946306 14.1959Z" fill="url(#paint1_linear)"/>
<path d="M43.2994 26.7963C43.0626 26.5993 42.8257 26.5014 42.5889 26.5014C42.3132 26.5014 42.0862 26.5896 41.9091 26.7672C41.7318 26.9444 41.6433 27.1713 41.6433 27.4471V33.1262H34.0717C33.2038 33.1262 32.4005 32.983 31.661 32.6966C30.9214 32.4108 30.3003 32.066 29.7977 31.6615C29.2954 31.2573 28.7923 30.7001 28.2896 29.99C27.7866 29.2802 27.387 28.6539 27.0914 28.1114C26.7959 27.57 26.4312 26.8543 25.9973 25.9678C24.4792 29.5167 23.1386 32.2081 21.9751 34.042C22.5072 34.8108 23.0594 35.4961 23.6312 36.097C24.2028 36.6983 24.7452 37.2258 25.2578 37.6795C25.7705 38.1326 26.3521 38.5275 27.0027 38.8621C27.6536 39.1974 28.2251 39.4783 28.7185 39.7052C29.2127 39.932 29.8331 40.1143 30.5821 40.2525C31.3312 40.3901 31.9621 40.4943 32.4748 40.5623C32.9874 40.6311 33.6875 40.6807 34.5748 40.7106C35.4618 40.7403 36.1815 40.7495 36.733 40.7403C37.2857 40.7304 38.0844 40.7198 39.1295 40.7106C40.1746 40.7009 41.0127 40.6957 41.6438 40.6957V46.3744C41.6438 46.6307 41.7373 46.8526 41.9245 47.0398C42.1117 47.2271 42.3336 47.3206 42.5896 47.3206C42.866 47.3206 43.0929 47.2321 43.2694 47.0548L52.734 37.5909C52.9113 37.413 52.9999 37.1868 52.9999 36.9103C52.9999 36.6342 52.9113 36.4076 52.7333 36.2305L43.2994 26.7963Z" fill="url(#paint2_linear)"/>
<defs>
<linearGradient id="paint0_linear" x1="4.94809" y1="8.42009e-05" x2="56.1848" y2="17.6374" gradientUnits="userSpaceOnUse">
<stop stop-color="#6A11CB"/>
<stop offset="1" stop-color="#2575FC"/>
</linearGradient>
<linearGradient id="paint1_linear" x1="1.83879" y1="6.62503" x2="20.7717" y2="13.3177" gradientUnits="userSpaceOnUse">
<stop stop-color="#6A11CB"/>
<stop offset="1" stop-color="#2575FC"/>
</linearGradient>
<linearGradient id="paint2_linear" x1="24.8713" y1="25.9678" x2="54.1061" y2="37.1956" gradientUnits="userSpaceOnUse">
<stop stop-color="#6A11CB"/>
<stop offset="1" stop-color="#2575FC"/>
</linearGradient>
</defs>
</svg>
