<svg version="1.1" xmlns="http://www.w3.org/2000/svg" xmlns:xlink="http://www.w3.org/1999/xlink" x="0px" y="0px"
	 viewBox="0 0 150 241.6" style="enable-background:new 0 0 150 241.6;" xml:space="preserve">
<style type="text/css">
	.ast0{fill:#2A8BCB;}
	.ast1{fill:#35ADDD;}
	.ast2{fill:#3D4599;}
	.ast3{fill:#464646;}
</style>
<g>
	<g>
		<polygon class="ast0" points="75,0 0,43.3 16,52.5 75,18.5 		"/>
		<polygon class="ast1" points="75,0 0,43.3 16,52.5 		"/>
		<polygon class="ast2" points="75,0 150,43.3 134,52.5 75,18.5 		"/>
		<polygon class="ast0" points="75,0 150,43.3 134,52.5 		"/>
		<polygon class="ast0" points="16,52.5 16,70.4 0,70.4 0,43.3 		"/>
		<polygon class="ast1" points="16,70.4 0,70.4 0,43.3 		"/>
		<polygon class="ast1" points="134,52.5 134,70.4 150,70.4 150,43.3 		"/>
		<polygon class="ast2" points="134,70.4 150,70.4 150,43.3 		"/>
	</g>
	<polygon class="ast0" points="75,173.2 0,129.9 16,120.7 75,154.7 	"/>
	<polygon class="ast1" points="75,173.2 0,129.9 16,120.7 	"/>
	<polygon class="ast0" points="75,173.2 150,129.9 134,120.7 75,154.7 	"/>
	<polygon class="ast2" points="75,173.2 150,129.9 134,120.7 	"/>
	<g>
		<polygon class="ast0" points="134,120.7 134,102.8 150,102.8 150,129.9 		"/>
		<polygon class="ast1" points="134,120.7 150,102.8 150,129.9 		"/>
	</g>
	<g>
		<polygon class="ast1" points="16,120.7 16,102.8 0,102.8 0,129.9 		"/>
		<polygon class="ast0" points="16,120.7 0,102.8 0,129.9 		"/>
	</g>
	<polygon class="ast1" points="83,168.6 83,114 75,118.7 67,114 67,168.6 75,173.2 	"/>
	<path class="ast0" d="M75,50.6c-19.9,0-36,16.1-36,36s16.1,36,36,36s36-16.1,36-36S94.9,50.6,75,50.6z M75,106.6c-11,0-20-9-20-20
		s9-20,20-20s20,9,20,20S86,106.6,75,106.6z"/>
</g>
<g>
	<g>
		<path class="ast3" d="M30,206.1c-0.2-0.7-1.2-1.1-3-1.1h-2.7c-1.7,0-2.7,0.4-3,1.1L10,239.5c-0.1,0.5-0.2,0.8-0.2,0.9
			c0,0.8,1.1,1.1,3.2,1.1H15c1.4,0,2.1-0.4,2.4-1.1l2.1-6.3h12.3l2.1,6.3c0.2,0.7,1.2,1.1,2.9,1.1H39c1.7,0,2.6-0.4,2.6-1.1
			c0-0.3-0.1-0.6-0.2-0.9L30,206.1z M21.7,227.3l3.1-9.3c0.2-0.6,0.4-1.2,0.5-2c0.1-0.7,0.2-1.2,0.2-1.4h0.2
			c0.3,1.5,0.5,2.6,0.8,3.3l3,9.3H21.7z M67.7,213.9c-1.6,0-3,0.4-4.4,1.1c-1.4,0.8-2.5,1.7-3.3,2.8c0-0.2-0.1-0.6-0.2-1.1
			c-0.1-0.6-0.3-1.1-0.5-1.5c-0.2-0.5-0.7-0.7-1.3-0.7c-1.1,0-2.3,0.1-3.7,0.4c-1.4,0.3-2.1,0.7-2.1,1.2c0,0.2,0.1,0.6,0.2,1.1
			c0.1,1,0.3,1.9,0.3,2.7c0.1,0.8,0.1,2,0.1,3.5v16.5c0,1.1,1,1.7,3.1,1.7h1.5c2.1,0,3.1-0.6,3.1-1.7v-16.7c0.4-0.8,1-1.5,1.7-2.1
			c0.7-0.6,1.5-0.9,2.5-0.9c1.1,0,1.9,0.3,2.4,0.8c0.5,0.5,0.7,1.3,0.7,2.4v16.5c0,1.1,1,1.7,3.1,1.7h1.5c2.1,0,3.1-0.6,3.1-1.7
			v-17.6c0-2.9-0.6-5-1.9-6.4C72.2,214.5,70.3,213.9,67.7,213.9z M104.2,226.3l7.2-10.3c0.3-0.4,0.5-0.8,0.5-1c0-0.5-1-0.8-2.9-0.8
			H107c-0.9,0-1.5,0.1-2,0.2c-0.5,0.1-0.9,0.4-1.1,0.8l-6.3,9.4l-0.2-0.1v-20.6c0-1.1-1-1.7-3.1-1.7h-1.5c-2.1,0-3.1,0.6-3.1,1.7v36
			c0,1.1,1,1.7,3.1,1.7h1.5c2.1,0,3.1-0.6,3.1-1.7v-11.2l0.2-0.1l7.2,12c0.4,0.7,1.4,1,3.1,1h2.2c2,0,3-0.3,3-0.8
			c0-0.3-0.1-0.7-0.4-1.1L104.2,226.3z M139.6,214.7c-0.4-0.6-1.2-0.9-2.3-0.9c-1.4,0-2.5,0.4-3.4,1.1c-0.9,0.7-1.7,1.7-2.3,2.9
			c0-0.2-0.1-0.6-0.2-1.1c-0.1-0.6-0.3-1.1-0.5-1.5c-0.2-0.5-0.7-0.7-1.3-0.7c-1.1,0-2.3,0.1-3.7,0.4c-1.4,0.3-2.1,0.7-2.1,1.2
			c0,0.2,0.1,0.6,0.2,1.1c0.1,1,0.3,1.9,0.3,2.7c0.1,0.8,0.1,2,0.1,3.5v16.5c0,1.1,1,1.7,3.1,1.7h1.5c2.1,0,3.1-0.6,3.1-1.7v-16.7
			c0.4-0.7,1-1.3,1.7-1.8c0.7-0.5,1.5-0.8,2.5-0.8c0.4,0,0.8,0.1,1.4,0.2c0.5,0.1,0.9,0.2,1.1,0.2c0.5,0,0.8-0.5,1.1-1.6
			s0.5-2,0.5-2.7S140,215.3,139.6,214.7z"/>
	</g>
</g>
</svg>
