<svg width="140" height="47" viewBox="0 0 140 47" fill="none" xmlns="http://www.w3.org/2000/svg">
<path d="M0 20.7556V0.359924H7.03464L10.6268 15.2368L14.2189 0.359924H21.2536V20.7556H17.1226V4.97894H16.6736L12.6923 19.8558H8.5613L4.58 4.97894H4.13098V20.7556H0Z" fill="white"/>
<path d="M29.9166 15.9566C30.5153 16.9964 31.6229 17.5163 33.2394 17.5163C34.8558 17.5163 35.9534 16.9964 36.5322 15.9566C37.1309 14.8968 37.4302 13.1372 37.4302 10.6777C37.4302 8.19826 37.1309 6.39864 36.5322 5.27888C35.9335 4.15911 34.8359 3.59923 33.2394 3.59923C31.6428 3.59923 30.5452 4.15911 29.9465 5.27888C29.3479 6.39864 29.0485 8.19826 29.0485 10.6777C29.0485 13.1372 29.3379 14.8968 29.9166 15.9566ZM39.7651 18.596C38.5078 20.2757 36.3326 21.1155 33.2394 21.1155C30.1461 21.1155 27.9609 20.2757 26.6837 18.596C25.4264 16.8964 24.7978 14.247 24.7978 10.6477C24.7978 7.0485 25.4264 4.37907 26.6837 2.63944C27.9609 0.879813 30.1461 0 33.2394 0C36.3326 0 38.5078 0.879813 39.7651 2.63944C41.0423 4.37907 41.6809 7.0485 41.6809 10.6477C41.6809 14.247 41.0423 16.8964 39.7651 18.596Z" fill="white"/>
<path d="M45.2235 0.359924H53.216C55.3314 0.359924 56.9179 0.789832 57.9756 1.64965C59.0333 2.48947 59.5622 3.85918 59.5622 5.75878C59.5622 6.89853 59.3925 7.80834 59.0533 8.48819C58.714 9.14805 58.1353 9.73793 57.3171 10.2578C58.2151 10.6377 58.8737 11.1876 59.2928 11.9075C59.7318 12.6273 59.9513 13.6271 59.9513 14.9068C59.9513 16.8864 59.3726 18.3561 58.2151 19.3159C57.0576 20.2757 55.4312 20.7556 53.3358 20.7556H45.2235V0.359924ZM53.1262 12.2374H49.3545V17.2163H53.1262C54.0243 17.2163 54.6828 17.0364 55.1019 16.6765C55.541 16.3165 55.7605 15.6567 55.7605 14.6969C55.7605 13.0572 54.8824 12.2374 53.1262 12.2374ZM53.0065 3.89917H49.3545V8.75814H53.0364C54.593 8.75814 55.3713 7.94831 55.3713 6.32865C55.3713 4.709 54.583 3.89917 53.0065 3.89917Z" fill="white"/>
<path d="M70.9946 20.7556H66.8636V12.5073L60.5774 0.359924H65.1574L68.8992 8.48819L72.641 0.359924H77.221L70.9946 12.5073V20.7556Z" fill="white"/>
<path d="M86.3104 20.7556H79.4554V0.359924H86.3104C88.0666 0.359924 89.5134 0.549884 90.6509 0.929803C91.7884 1.28973 92.6665 1.8996 93.2851 2.75941C93.9238 3.59923 94.3628 4.59902 94.6023 5.75878C94.8418 6.89853 94.9615 8.38822 94.9615 10.2278C94.9615 12.0674 94.8517 13.5971 94.6322 14.8168C94.4127 16.0166 93.9936 17.0964 93.375 18.0562C92.7763 18.996 91.8982 19.6858 90.7407 20.1257C89.5832 20.5456 88.1065 20.7556 86.3104 20.7556ZM90.6509 12.6573C90.6908 12.0174 90.7108 11.1376 90.7108 10.0179C90.7108 8.87811 90.6709 7.9683 90.591 7.28845C90.5112 6.60859 90.3216 5.98873 90.0223 5.42884C89.7229 4.86896 89.2739 4.48904 88.6752 4.28909C88.0965 4.06913 87.3082 3.95916 86.3104 3.95916H83.5863V17.1563H86.3104C87.8071 17.1563 88.8947 16.7764 89.5733 16.0166C90.152 15.3967 90.5112 14.277 90.6509 12.6573Z" fill="white"/>
<path d="M98.5445 20.7556V0.359924H102.675V20.7556H98.5445Z" fill="white"/>
<path d="M120.012 20.4257C117.896 20.8856 115.99 21.1155 114.294 21.1155C112.598 21.1155 111.241 20.9056 110.223 20.4856C109.205 20.0657 108.407 19.3959 107.828 18.4761C107.249 17.5563 106.85 16.4765 106.631 15.2368C106.411 13.997 106.302 12.4374 106.302 10.5578C106.302 6.61859 106.85 3.87918 107.948 2.3395C109.066 0.779834 111.111 0 114.085 0C115.801 0 117.786 0.269943 120.042 0.809828L119.922 4.10913C117.946 3.80919 116.3 3.65922 114.983 3.65922C113.685 3.65922 112.757 3.83918 112.199 4.19911C111.64 4.53903 111.221 5.19889 110.941 6.17869C110.682 7.15848 110.552 8.82812 110.552 11.1876C110.552 13.5471 110.822 15.1868 111.361 16.1066C111.919 17.0064 113.017 17.4563 114.653 17.4563C116.31 17.4563 118.066 17.3163 119.922 17.0364L120.012 20.4257Z" fill="white"/>
<path d="M127.494 20.7556H123.363V0.359924H127.494V9.32802L130.248 9.02808L133.601 0.359924H138.301L133.87 10.5877L138.42 20.7556H133.661L130.248 12.6273L127.494 12.9272V20.7556Z" fill="white"/>
<path d="M0.653572 38.3518H1.65139L3.12318 46.1502H3.48489L5.24355 38.4268H6.3661L8.12475 46.1502H8.48646L9.95825 38.3518H10.9436L9.19741 47H7.43875L5.80482 39.6141L4.17089 47H2.41223L0.653572 38.3518Z" fill="white"/>
<path d="M19.4535 47L21.8233 38.3518H23.9188L26.2886 47H25.3407L24.717 44.7755H21.0251L20.4015 47H19.4535ZM22.5468 39.1767L21.2371 43.9132H24.505L23.1954 39.1767H22.5468Z" fill="white"/>
<path d="M40.5038 47H35.7517V38.3518H36.7121V46.1377H40.5038V47Z" fill="white"/>
<path d="M54.5795 47H49.8274V38.3518H50.7878V46.1377H54.5795V47Z" fill="white"/>
<path d="M63.9031 47V38.3518H69.1542V39.2017H64.8635V42.1885H68.4058V43.0258H64.8635V46.1502H69.1542V47H63.9031Z" fill="white"/>
<path d="M78.0065 39.2142V38.3518H84.2429V39.2142H81.6111V47H80.6632V39.2142H78.0065Z" fill="white"/>
<path d="M109.177 47H104.425V38.3518H105.385V46.1377H109.177V47Z" fill="white"/>
<path d="M117.74 47L120.11 38.3518H122.205L124.575 47H123.627L123.003 44.7755H119.311L118.688 47H117.74ZM120.833 39.1767L119.523 43.9132H122.791L121.482 39.1767H120.833Z" fill="white"/>
<path d="M134.038 38.3518H137.169C138.025 38.3518 138.665 38.531 139.089 38.8892C139.522 39.2392 139.738 39.7932 139.738 40.5514C139.738 41.0929 139.642 41.5178 139.451 41.8261C139.268 42.126 138.994 42.3635 138.628 42.5384C139.543 42.855 140 43.5341 140 44.5755C140 45.442 139.771 46.0627 139.314 46.4376C138.857 46.8125 138.196 47 137.331 47H134.038V38.3518ZM137.231 43.0258H134.998V46.1502H137.293C137.859 46.1502 138.287 46.0335 138.578 45.8003C138.877 45.5586 139.027 45.1379 139.027 44.538C139.027 44.2214 138.965 43.9548 138.84 43.7382C138.724 43.5216 138.566 43.3674 138.366 43.2758C138 43.1092 137.622 43.0258 137.231 43.0258ZM137.131 39.2017H134.998V42.1885H137.219C137.751 42.1885 138.137 42.0635 138.379 41.8136C138.628 41.5553 138.753 41.1721 138.753 40.6638C138.753 40.1473 138.62 39.7765 138.354 39.5516C138.096 39.3183 137.688 39.2017 137.131 39.2017Z" fill="white"/>
</svg>
