<?xml version="1.0" encoding="utf-8"?>
<!-- Generator: Adobe Illustrator 21.1.0, SVG Export Plug-In . SVG Version: 6.00 Build 0)  -->
<svg version="1.1" id="Ñëîé_1" xmlns="http://www.w3.org/2000/svg" xmlns:xlink="http://www.w3.org/1999/xlink" x="0px" y="0px"
	 viewBox="0 0 154.2 101.4" style="enable-background:new 0 0 154.2 101.4;" xml:space="preserve">
<style type="text/css">
	.st0{fill-rule:evenodd;clip-rule:evenodd;fill:#00B9ED;}
	.st1{fill-rule:evenodd;clip-rule:evenodd;fill:#00B0E7;}
	.st2{fill-rule:evenodd;clip-rule:evenodd;fill:#3CC3DD;}
	.st3{fill-rule:evenodd;clip-rule:evenodd;fill:#9BD2F2;}
	.st4{fill-rule:evenodd;clip-rule:evenodd;fill:#00AAE3;}
	.st5{fill-rule:evenodd;clip-rule:evenodd;fill:#0EC1E5;}
	.st6{fill-rule:evenodd;clip-rule:evenodd;fill:#7DCEF3;}
	.st7{fill-rule:evenodd;clip-rule:evenodd;fill:#2EBEEF;}
	.st8{fill-rule:evenodd;clip-rule:evenodd;fill:#00ABE3;}
	.st9{fill-rule:evenodd;clip-rule:evenodd;fill:#00ACE4;}
	.st10{fill-rule:evenodd;clip-rule:evenodd;fill:#5FCCF5;}
	.st11{fill-rule:evenodd;clip-rule:evenodd;fill:#5CBCEB;}
	.st12{fill-rule:evenodd;clip-rule:evenodd;fill:#00A2DD;}
	.st13{fill-rule:evenodd;clip-rule:evenodd;fill:#0690CF;}
	.st14{fill-rule:evenodd;clip-rule:evenodd;fill:#0069B4;}
	.st15{fill-rule:evenodd;clip-rule:evenodd;fill:#0067B3;}
	.st16{fill-rule:evenodd;clip-rule:evenodd;fill:#20C4F4;}
	.st17{fill-rule:evenodd;clip-rule:evenodd;fill:#2EB4E8;}
	.st18{fill-rule:evenodd;clip-rule:evenodd;fill:#00BAE2;}
	.st19{fill-rule:evenodd;clip-rule:evenodd;fill:#30B3E7;}
	.st20{fill-rule:evenodd;clip-rule:evenodd;fill:#00C1F3;}
	.st21{fill-rule:evenodd;clip-rule:evenodd;fill:#3084C6;}
	.st22{fill-rule:evenodd;clip-rule:evenodd;fill:#377FC2;}
	.st23{fill-rule:evenodd;clip-rule:evenodd;fill:#006EB7;}
	.st24{fill-rule:evenodd;clip-rule:evenodd;fill:#4FC2F0;}
	.st25{fill-rule:evenodd;clip-rule:evenodd;fill:#08AFE6;}
	.st26{fill-rule:evenodd;clip-rule:evenodd;fill:#2959A9;}
	.st27{fill-rule:evenodd;clip-rule:evenodd;fill:#6CC8C1;}
	.st28{fill-rule:evenodd;clip-rule:evenodd;fill:#0064B0;}
	.st29{fill-rule:evenodd;clip-rule:evenodd;fill:#4CC0EF;}
	.st30{fill-rule:evenodd;clip-rule:evenodd;fill:#4076BB;}
	.st31{fill-rule:evenodd;clip-rule:evenodd;fill:#59AADE;}
	.st32{fill-rule:evenodd;clip-rule:evenodd;fill:#009DD9;}
	.st33{fill-rule:evenodd;clip-rule:evenodd;fill:#1E95D3;}
	.st34{fill-rule:evenodd;clip-rule:evenodd;fill:#0074BC;}
	.st35{fill-rule:evenodd;clip-rule:evenodd;fill:#59C9E6;}
	.st36{fill-rule:evenodd;clip-rule:evenodd;fill:#1893D2;}
	.st37{fill-rule:evenodd;clip-rule:evenodd;fill:#1C83C6;}
	.st38{fill-rule:evenodd;clip-rule:evenodd;fill:#0076BD;}
	.st39{fill-rule:evenodd;clip-rule:evenodd;fill:#0066B2;}
	.st40{fill-rule:evenodd;clip-rule:evenodd;fill:#0080C4;}
	.st41{fill-rule:evenodd;clip-rule:evenodd;fill:#0070B9;}
	.st42{fill-rule:evenodd;clip-rule:evenodd;fill:#57C5CB;}
	.st43{fill-rule:evenodd;clip-rule:evenodd;fill:#152D42;}
	.st44{fill-rule:evenodd;clip-rule:evenodd;fill:#53C4CA;}
</style>
<g>
	<g>
		<g>
			<polygon class="st0" points="70.3,14 63.5,24.2 77.1,24.2 			"/>
			<polygon class="st1" points="83.9,14 77.1,24.2 90.2,24.2 90.4,23.8 			"/>
			<polygon class="st2" points="77.1,24.2 70.3,14 83.9,14 			"/>
			<polygon class="st3" points="43.2,34.4 36.4,24.2 50,24.2 			"/>
			<polygon class="st4" points="65.2,26.6 63.5,24.2 77.1,24.2 70.5,34.1 69,25.7 			"/>
			<polygon class="st5" points="83.9,34.4 77.1,24.2 90.2,24.2 83.8,34 83.9,34.3 			"/>
			<polygon class="st6" points="36.4,24.2 29.7,34.4 43.2,34.4 			"/>
			<polygon class="st7" points="50,24.2 43.2,34.4 56.1,34.4 56.3,34 50.3,30.1 53.4,29.3 			"/>
			<polygon class="st8" points="63.5,24.2 61.3,27.5 65.2,26.6 			"/>
			<polygon class="st9" points="77.1,24.2 70.5,34.1 70.5,34.4 83.9,34.4 			"/>
			<polygon class="st5" points="83.9,34.3 83.9,34.4 84,34.4 			"/>
			<polygon class="st10" points="29.7,34.4 22.9,44.6 36.4,44.6 			"/>
			<polygon class="st11" points="43.2,34.4 36.4,44.6 49.4,44.6 49.7,44.1 			"/>
			<path class="st12" d="M63.8,44.6h8.4l-5.9-3.9L63.8,44.6L63.8,44.6z M72.3,44.6l-1.7-9.8l6.5,9.8H72.3z"/>
			<polygon class="st12" points="83.9,34.4 77.1,44.6 90.7,44.6 			"/>
			<polygon class="st13" points="90.7,44.5 90.7,44.6 90.7,44.6 			"/>
			<polygon class="st14" points="104.7,44.6 117.8,44.6 111.1,34.5 			"/>
			<polygon class="st15" points="124.6,34.4 117.8,44.6 131.3,44.6 			"/>
			<polygon class="st16" points="36.4,44.6 29.7,34.4 43.2,34.4 			"/>
			<polygon class="st17" points="49.7,44.1 43.2,34.4 56.1,34.4 			"/>
			<polygon class="st18" points="77.1,44.6 70.6,34.8 70.5,34.4 83.9,34.4 			"/>
			<polygon class="st5" points="90.7,44.6 83.9,34.4 84,34.4 90.7,44.5 			"/>
			<polygon class="st15" points="117.8,44.6 111.1,34.5 111.1,34.4 124.6,34.4 			"/>
			<polygon class="st11" points="29.7,54.7 22.9,44.6 36.4,44.6 			"/>
			<polygon class="st19" points="43,54.4 36.4,44.6 49.4,44.6 			"/>
			<polygon class="st20" points="53.4,29.3 50,24.2 63.5,24.2 61.4,27.5 			"/>
			<polygon class="st21" points="70.3,54.7 63.7,44.8 63.8,44.6 72.2,44.6 72.3,44.6 72.3,44.6 77.1,44.6 			"/>
			<polygon class="st22" points="82.5,52.6 77.1,44.6 90.7,44.6 87,50 81.4,46.3 			"/>
			<polygon class="st23" points="90.8,44.7 90.7,44.6 90.7,44.6 90.8,44.7 			"/>
			<polygon class="st1" points="83.9,14 77.1,3.8 90.7,3.8 			"/>
			<polygon class="st24" points="77.1,3.8 70.3,14 83.9,14 			"/>
			<polygon class="st24" points="90.7,3.8 83.9,14 96.8,14 97.1,13.5 			"/>
			<polygon class="st25" points="90.4,23.8 83.9,14 96.8,14 			"/>
			<polygon class="st14" points="111,54.7 104.4,44.9 104.7,44.6 117.8,44.6 			"/>
			<polygon class="st26" points="128.1,57.8 132.7,64.7 123.5,64.7 			"/>
			<polygon class="st27" points="138.3,63.1 134.7,57.8 141.8,57.8 			"/>
			<polygon class="st28" points="124.6,54.7 117.8,44.6 131.3,44.6 			"/>
			<polygon class="st29" points="36.4,44.6 29.7,54.7 42.8,54.7 43,54.4 			"/>
			<polygon class="st30" points="17.3,41.6 10.6,51.8 24.1,51.8 			"/>
			<polygon class="st31" points="56.4,17.5 52.7,23.1 60.1,23.1 			"/>
			<polygon class="st32" points="57.2,54.7 70.3,54.7 63.7,44.8 			"/>
			<polygon class="st33" points="77.1,44.6 70.3,54.7 82.9,54.7 82.5,52.6 			"/>
			<polygon class="st34" points="90.7,44.6 87,50 87.2,50.2 90.8,44.7 			"/>
			<polygon class="st14" points="98.2,54.7 111,54.7 104.4,44.9 			"/>
			<polygon class="st28" points="117.8,44.6 111,54.7 124.6,54.7 			"/>
			<polygon class="st28" points="137.6,44.3 131.8,53 143.4,53 			"/>
			<polygon class="st10" points="27.2,56.7 22.3,64.1 32.1,64.1 			"/>
			<polygon class="st35" points="17.1,59.4 19.8,55.3 14.4,55.3 			"/>
			<polygon class="st15" points="115.3,32.4 122,22.3 108.6,22.3 			"/>
			<polygon class="st5" points="61.5,21.9 67.5,12.9 55.6,12.9 			"/>
			<polygon class="st32" points="50.7,64.9 63.5,64.9 57,55.1 			"/>
			<polygon class="st36" points="70.3,54.7 63.5,64.9 77.1,64.9 			"/>
			<polygon class="st37" points="83.1,56 77.1,64.9 90.7,64.9 89.7,63.5 84.6,64.7 			"/>
			<path class="st38" d="M91.9,63l-1.3,1.9h13.6l-2.8-4.1L91.9,63L91.9,63z M100,58.6l-2.2-3.3L97,56.6L100,58.6z"/>
			<polygon class="st39" points="111,54.7 104.2,64.9 117.8,64.9 			"/>
			<polygon class="st19" points="36.3,64.8 29.7,54.7 42.8,54.7 			"/>
			<polygon class="st32" points="63.5,64.9 57,55.1 57.2,54.7 70.3,54.7 			"/>
			<polygon class="st40" points="77.1,64.9 70.3,54.7 82.9,54.7 83.1,56 			"/>
			<polygon class="st34" points="90.7,64.9 89.7,63.5 91.9,63 			"/>
			<polygon class="st41" points="104.2,64.9 101.5,60.8 102.8,60.5 100,58.6 97.8,55.3 98.2,54.7 111,54.7 			"/>
			<polygon class="st39" points="117.8,64.9 111,54.7 124.6,54.7 			"/>
		</g>
		<path class="st42" d="M83.8,34l16.8-25.8l-6-4L113.2,0l3.4,18.9l-6-4c-2.9,4.4-19.8,29.8-19.8,29.8L83.8,34z"/>
	</g>
	<g>
		<path class="st43" d="M4.5,101.4h2.7c0.4,0,0.7-0.1,1.1-0.3c0.4-0.2,0.7-0.5,1-0.8c0.3-0.3,0.6-0.7,0.7-1.1
			c0.2-0.4,0.3-0.8,0.3-1.2v-6.9c0-0.4-0.2-0.7-0.4-1.1c-0.2-0.3-0.4-0.7-0.7-0.9c-0.3-0.3-0.6-0.5-0.9-0.6
			c-0.3-0.2-0.7-0.2-1.1-0.2H0.3c-0.1,0-0.2,0.1-0.2,0.2C0,88.5,0,88.6,0,88.7V101c0,0.1,0,0.2,0.1,0.3c0,0.1,0.1,0.1,0.2,0.1h1.5
			c0.1,0,0.1,0,0.2-0.1c0.1-0.1,0.1-0.2,0.1-0.3V90.5c0,0,0.1-0.1,0.1-0.1c0.1,0,0.1-0.1,0.2-0.1h4.2c0.2,0,0.4,0,0.6,0.1
			c0.2,0.1,0.4,0.2,0.6,0.3c0.2,0.1,0.3,0.3,0.4,0.5c0.1,0.2,0.1,0.4,0.1,0.6v5.9c0,0.2,0,0.3-0.1,0.5c-0.1,0.2-0.2,0.3-0.3,0.5
			c-0.1,0.1-0.3,0.3-0.5,0.4c-0.2,0.1-0.5,0.2-0.7,0.2H4.5c-0.1,0-0.2,0-0.3,0.1c-0.1,0.1-0.1,0.1-0.1,0.2v1.5c0,0.1,0,0.1,0.1,0.2
			C4.3,101.4,4.4,101.4,4.5,101.4L4.5,101.4z M15.6,95.4L15.6,95.4h6c0.1,0,0.2,0,0.3-0.1c0.1-0.1,0.1-0.1,0.1-0.2v-1.5
			c0-0.1,0-0.1-0.1-0.2c-0.1-0.1-0.2-0.1-0.3-0.1h-6c-0.1,0-0.2,0-0.2-0.1c0-0.1,0-0.2,0-0.3v-2.4c0,0,0.1-0.1,0.1-0.1
			c0.1,0,0.1-0.1,0.2-0.1h5.9c0.1,0,0.2,0,0.3-0.1c0.1-0.1,0.1-0.1,0.1-0.2v-1.5c0-0.1,0-0.1-0.1-0.2c-0.1-0.1-0.2-0.1-0.3-0.1h-8
			c-0.1,0-0.2,0.1-0.2,0.2c-0.1,0.1-0.1,0.2-0.1,0.3v12.2c0,0.1,0,0.2,0.1,0.3c0.1,0.1,0.2,0.2,0.2,0.2h8c0.1,0,0.2,0,0.3-0.1
			c0.1-0.1,0.1-0.1,0.1-0.2v-1.5c0-0.1,0-0.1-0.1-0.2c-0.1-0.1-0.2-0.1-0.3-0.1h-5.9c-0.1,0-0.2,0-0.2-0.1c0-0.1-0.1-0.1-0.1-0.2
			v-3.2c0-0.1,0-0.2,0.1-0.2C15.5,95.4,15.6,95.4,15.6,95.4L15.6,95.4z M27.2,95.4L27.2,95.4h6c0.1,0,0.2,0,0.3-0.1
			c0.1-0.1,0.1-0.1,0.1-0.2v-1.5c0-0.1,0-0.1-0.1-0.2c-0.1-0.1-0.2-0.1-0.3-0.1h-6c-0.1,0-0.2,0-0.2-0.1c0-0.1,0-0.2,0-0.3v-2.4
			c0,0,0.1-0.1,0.1-0.1c0.1,0,0.1-0.1,0.2-0.1h5.9c0.1,0,0.2,0,0.3-0.1c0.1-0.1,0.1-0.1,0.1-0.2v-1.5c0-0.1,0-0.1-0.1-0.2
			c-0.1-0.1-0.2-0.1-0.3-0.1h-8c-0.1,0-0.2,0.1-0.2,0.2c-0.1,0.1-0.1,0.2-0.1,0.3v12.2c0,0.1,0,0.2,0.1,0.3c0.1,0.1,0.2,0.2,0.2,0.2
			h8c0.1,0,0.2,0,0.3-0.1c0.1-0.1,0.1-0.1,0.1-0.2v-1.5c0-0.1,0-0.1-0.1-0.2c-0.1-0.1-0.2-0.1-0.3-0.1h-5.9c-0.1,0-0.2,0-0.2-0.1
			c0-0.1-0.1-0.1-0.1-0.2v-3.2c0-0.1,0-0.2,0.1-0.2C27.1,95.4,27.2,95.4,27.2,95.4L27.2,95.4z M41,97.5L41,97.5h2.7
			c0.4,0,0.7-0.1,1.1-0.3c0.4-0.2,0.7-0.5,1-0.8c0.3-0.3,0.6-0.7,0.7-1.1c0.2-0.4,0.3-0.8,0.3-1.2v-3c0-0.4-0.2-0.7-0.4-1.1
			c-0.2-0.3-0.4-0.7-0.7-0.9c-0.3-0.3-0.6-0.5-0.9-0.6c-0.3-0.2-0.7-0.2-1.1-0.2h-6.9c-0.1,0-0.2,0.1-0.2,0.2
			c-0.1,0.1-0.1,0.2-0.1,0.3V101c0,0.1,0,0.2,0.1,0.3c0.1,0.1,0.1,0.1,0.2,0.1h1.5c0.1,0,0.1,0,0.2-0.1c0.1-0.1,0.1-0.2,0.1-0.3
			V90.5c0,0,0.1-0.1,0.1-0.1c0.1,0,0.1-0.1,0.2-0.1h4.2c0.5,0,0.9,0.2,1.2,0.5c0.3,0.3,0.5,0.7,0.5,1.1v2c0,0.2,0,0.3-0.1,0.5
			c-0.1,0.2-0.2,0.3-0.3,0.5c-0.1,0.2-0.3,0.3-0.5,0.4c-0.2,0.1-0.5,0.2-0.7,0.2H41c-0.1,0-0.2,0-0.3,0.1c-0.1,0.1-0.1,0.1-0.1,0.2
			v1.5c0,0.1,0,0.1,0.1,0.2C40.8,97.5,40.9,97.5,41,97.5L41,97.5z M59.8,101L59.8,101V90.6c0-0.1,0-0.2,0.1-0.2c0.1,0,0.2,0,0.2,0h3
			c0.1,0,0.2,0,0.3-0.1c0.1-0.1,0.1-0.1,0.1-0.2v-1.5c0-0.1,0-0.1-0.1-0.2c-0.1-0.1-0.2-0.1-0.3-0.1h-8.8c-0.1,0-0.2,0-0.3,0.1
			C54,88.4,54,88.5,54,88.5v1.5c0,0.1,0,0.1,0.1,0.2c0.1,0.1,0.2,0.1,0.3,0.1h2.9c0.1,0,0.2,0,0.2,0.1c0.1,0.1,0.1,0.1,0.1,0.2V101
			c0,0.1,0,0.2,0.1,0.3c0.1,0.1,0.1,0.1,0.2,0.1h1.5c0.1,0,0.1,0,0.2-0.1C59.7,101.2,59.8,101.1,59.8,101L59.8,101z M70.6,95.9
			L70.6,95.9l3.1,5.3c0.1,0.1,0.2,0.2,0.4,0.2H76c0.1,0,0.1-0.1,0.1-0.2c0-0.1,0-0.2-0.1-0.3L74,97.4c1.5-0.2,2.9-1.5,2.9-3.3v-3
			c0-1.6-1.6-2.9-3.1-2.9h-6.9c-0.1,0-0.2,0.1-0.2,0.2c-0.1,0.1-0.1,0.2-0.1,0.3V101c0,0.1,0,0.2,0.1,0.3c0.1,0.1,0.1,0.1,0.2,0.1
			h1.5c0.1,0,0.1,0,0.2-0.1c0.1-0.1,0.1-0.2,0.1-0.3V90.5c0,0,0.1-0.1,0.1-0.1c0.1,0,0.1-0.1,0.2-0.1H73c0.8,0,1.7,0.8,1.7,1.6v2
			c0,0.8-0.9,1.6-1.7,1.6h-2.2c0,0-0.1,0-0.1,0c-0.1,0-0.1,0.1-0.1,0.1V95.9C70.6,95.8,70.6,95.9,70.6,95.9L70.6,95.9z M83,88.6
			L83,88.6c0.1-0.1,0.1-0.1,0.2-0.2c0.1-0.1,0.1-0.1,0.3-0.2h2.9c0.2,0,0.4,0.2,0.4,0.4l4.8,12.5c0,0.1,0,0.2-0.1,0.3h-1.8
			c-0.1,0-0.1,0-0.2-0.1c-0.1,0-0.2-0.1-0.2-0.2l-4.2-10.8h-0.2l-3.4,10.8c0,0.2-0.2,0.2-0.4,0.2h-1.6c-0.5,0-0.3-0.4-0.2-0.7
			L83,88.6L83,88.6z M94.1,88.7L94.1,88.7V101c0,0.1,0,0.2,0.1,0.3c0.1,0.1,0.1,0.1,0.2,0.1h1.5c0.1,0,0.1,0,0.2-0.1
			c0.1-0.1,0.1-0.2,0.1-0.3v-9.8l5.9,9.4c0,0,0.1,0.1,0.1,0.2c0.1,0.1,0.2,0.2,0.2,0.3c0.1,0.1,0.2,0.2,0.3,0.2
			c0.1,0.1,0.2,0.1,0.3,0.1h2.5c0.1,0,0.1-0.1,0.2-0.2c0.1-0.2,0.1-0.3,0.1-0.3V88.7c0-0.1,0-0.2-0.1-0.3c-0.1-0.1-0.1-0.1-0.2-0.1
			H104c-0.1,0-0.1,0-0.2,0.1c-0.1,0.1-0.1,0.2-0.1,0.3v10.4h0l-6.6-10.4c-0.1-0.1-0.2-0.1-0.3-0.2c-0.1-0.1-0.2-0.1-0.3-0.2h-2.1
			c-0.1,0-0.2,0.1-0.2,0.2C94.1,88.5,94.1,88.7,94.1,88.7L94.1,88.7z M114.8,97.8L114.8,97.8c-0.3-0.3-0.7-0.7-1.2-1.1
			c-0.5-0.4-1-0.9-1.5-1.4c-0.5-0.5-1-1-1.5-1.4c-0.5-0.4-0.9-0.8-1.2-1.2c-1.9-1.9-0.8-4.4,1.6-4.4h6.5c0.1,0,0.2,0,0.3,0.1
			c0.1,0.1,0.1,0.1,0.1,0.2v1.5c0,0.1,0,0.1-0.1,0.2c-0.1,0.1-0.2,0.1-0.3,0.1h-5.7c-1.1,0-1,0.7-0.7,1l5.8,5.7
			c2.1,2,0.4,4.3-1.6,4.3h-6.5c-0.1,0-0.2,0-0.3-0.1c-0.1-0.1-0.1-0.1-0.1-0.2v-1.5c0-0.1,0-0.1,0.1-0.2c0.1-0.1,0.2-0.1,0.3-0.1
			h5.7C116,99.3,115.4,98.5,114.8,97.8L114.8,97.8z M123,95.9L123,95.9h6c0.1,0,0.2,0,0.3-0.1c0.1-0.1,0.1-0.1,0.1-0.2v-1.5
			c0-0.1,0-0.1-0.1-0.2c-0.1-0.1-0.2-0.1-0.3-0.1h-6c-0.1,0-0.2,0-0.2-0.1c0-0.1,0-0.2,0-0.3v-2.9c0,0,0.1-0.1,0.1-0.1
			c0.1,0,0.1-0.1,0.2-0.1h5.9c0.1,0,0.2,0,0.3-0.1c0.1-0.1,0.1-0.1,0.1-0.2v-1.5c0-0.1,0-0.1-0.1-0.2c-0.1-0.1-0.2-0.1-0.3-0.1h-8
			c-0.1,0-0.2,0.1-0.2,0.2c-0.1,0.1-0.1,0.2-0.1,0.3V101c0,0.1,0,0.2,0.1,0.3c0.1,0.1,0.1,0.1,0.2,0.1h1.5c0.1,0,0.1,0,0.2-0.1
			c0.1-0.1,0.1-0.2,0.1-0.3v-4.7c0-0.1,0-0.2,0.1-0.2C122.8,96,122.9,95.9,123,95.9L123,95.9z M134.6,95.9L134.6,95.9h6
			c0.1,0,0.2,0,0.3-0.1c0.1-0.1,0.1-0.1,0.1-0.2v-1.5c0-0.1,0-0.1-0.1-0.2c-0.1-0.1-0.2-0.1-0.3-0.1h-6c-0.1,0-0.2,0-0.2-0.1
			c0-0.1,0-0.2,0-0.3v-2.9c0,0,0.1-0.1,0.1-0.1c0.1,0,0.1-0.1,0.2-0.1h5.9c0.1,0,0.2,0,0.3-0.1c0.1-0.1,0.1-0.1,0.1-0.2v-1.5
			c0-0.1,0-0.1-0.1-0.2c-0.1-0.1-0.2-0.1-0.3-0.1h-8c-0.1,0-0.2,0.1-0.2,0.2c-0.1,0.1-0.1,0.2-0.1,0.3v12.2c0,0.1,0,0.2,0.1,0.3
			c0.1,0.1,0.2,0.2,0.2,0.2h8c0.1,0,0.2,0,0.3-0.1c0.1-0.1,0.1-0.1,0.1-0.2v-1.5c0-0.1,0-0.1-0.1-0.2c-0.1-0.1-0.2-0.1-0.3-0.1h-5.9
			c-0.1,0-0.2,0-0.2-0.1c0-0.1-0.1-0.1-0.1-0.2v-2.6c0-0.1,0-0.2,0.1-0.2C134.4,96,134.5,95.9,134.6,95.9L134.6,95.9z M148.2,96.3
			L148.2,96.3l2.9,4.9c0.1,0.1,0.2,0.2,0.4,0.2h1.9c0.1,0,0.1-0.1,0.1-0.2c0-0.1,0-0.2-0.1-0.3l-2.1-3.5c1.5-0.2,2.9-1.5,2.9-3.3v-3
			c0-1.6-1.6-2.9-3.1-2.9h-6.9c-0.1,0-0.2,0.1-0.2,0.2c-0.1,0.1-0.1,0.2-0.1,0.3V101c0,0.1,0,0.2,0.1,0.3c0.1,0.1,0.1,0.1,0.2,0.1
			h1.5c0.1,0,0.1,0,0.2-0.1c0.1-0.1,0.1-0.2,0.1-0.3V90.5c0,0,0.1-0.1,0.1-0.1c0.1,0,0.1-0.1,0.2-0.1h4.2c0.8,0,1.7,0.5,1.7,1.6v2
			c0,0.8-0.9,1.6-1.7,1.6h-1.3C148.4,95.4,147.8,95.6,148.2,96.3z"/>
		<polygon class="st44" points="85.3,100.3 82.4,95.9 88.2,95.9 		"/>
	</g>
</g>
</svg>
