<?xml version="1.0" encoding="utf-8"?>
<!-- Generator: Adobe Illustrator 21.1.0, SVG Export Plug-In . SVG Version: 6.00 Build 0)  -->
<svg version="1.1" id="Layer_1" xmlns="http://www.w3.org/2000/svg" xmlns:xlink="http://www.w3.org/1999/xlink" x="0px" y="0px"
	 viewBox="0 0 212.3 198.2" style="enable-background:new 0 0 212.3 198.2;" xml:space="preserve">
<style type="text/css">
	.st0{fill:#69E2F7;}
	.st1{fill:#6CD6F7;}
	.st2{fill:#61EAF8;}
	.st3{fill:#52D1EE;}
	.st4{fill:#3CD1EA;}
	.st5{fill:#46B8F1;}
	.st6{fill:#3CC9EA;}
	.st7{fill:#51C4F1;}
	.st8{fill:#85E1FF;}
	.st9{fill:#5FD2F4;}
	.st10{fill:#2ACDE8;}
	.st11{fill:#2BD1E1;}
	.st12{fill:#2AA8E8;}
	.st13{fill:#3A75EA;}
	.st14{fill:#9FECFF;}
	.st15{fill:#50D9EE;}
	.st16{fill:#25CCDD;}
	.st17{fill:#28C1EA;}
	.st18{fill:#45A0F4;}
	.st19{fill:#6CD4FF;}
	.st20{fill:#66C5FF;}
	.st21{fill:#2C90EA;}
	.st22{fill:#2BBDDF;}
	.st23{fill:#2487D7;}
	.st24{fill:#134FE1;}
	.st25{fill:#0B52E1;}
	.st26{fill:#5AD7FF;}
	.st27{fill:#58B6FB;}
	.st28{fill:#24A1EE;}
	.st29{fill:#2BB6DF;}
	.st30{fill:#2C6BDB;}
	.st31{fill:#1550F1;}
	.st32{fill:#5AC4F8;}
	.st33{fill:#FFFFFF;}
	.st34{fill:#229BE4;}
	.st35{fill:#1F99DD;}
	.st36{fill:#0D5ED2;}
	.st37{fill:#3AEAE0;}
	.st38{fill:#2A81EA;}
	.st39{fill:#0D45D1;}
	.st40{fill:#70D0FF;}
	.st41{fill:#0067B3;}
	.st42{fill:#084BD2;}
	.st43{fill:#0540C5;}
	.st44{fill:#1E8DDF;}
	.st45{fill:#1E87DF;}
	.st46{fill:#0F54D1;}
	.st47{fill:#1550D2;}
	.st48{fill:#27A8FF;}
	.st49{fill:#2A9ED7;}
	.st50{fill:#1792C8;}
	.st51{fill:#187EDB;}
	.st52{fill:#0D62C8;}
	.st53{fill:#074DBB;}
	.st54{fill:#47B8FF;}
	.st55{fill:#1FA3EC;}
	.st56{fill:#1FA6DB;}
	.st57{fill:#1676DD;}
	.st58{fill:#1662DD;}
	.st59{fill:#0E56C1;}
	.st60{fill:#0647B1;}
</style>
<g>
	<polygon class="st0" points="106.5,0 95.7,16.2 117.3,16.2 	"/>
	<polygon class="st1" points="128.2,0 117.3,16.2 139,16.2 	"/>
	<polygon class="st2" points="128.2,0 106.5,0 117.3,16.2 	"/>
	<polygon class="st3" points="95.7,16.2 84.9,32.4 106.5,32.4 	"/>
	<polygon class="st4" points="117.3,16.2 106.5,32.4 128.2,32.4 	"/>
	<polygon class="st5" points="139,16.2 128.2,32.4 149.8,32.4 	"/>
	<polygon class="st6" points="117.3,16.2 95.7,16.2 106.5,32.4 	"/>
	<polygon class="st7" points="139,16.2 117.3,16.2 128.2,32.4 	"/>
	<polygon class="st8" points="41.7,32.4 30.9,48.7 52.5,48.7 	"/>
	<polygon class="st9" points="63.3,32.4 52.5,48.7 74.1,48.7 	"/>
	<polygon class="st10" points="84.9,32.4 74.1,48.7 95.7,48.7 	"/>
	<polygon class="st11" points="106.5,32.4 95.7,48.7 117.3,48.7 	"/>
	<polygon class="st12" points="128.2,32.4 117.3,48.7 139,48.7 	"/>
	<polygon class="st13" points="149.8,32.4 139,48.7 160.6,48.7 	"/>
	<polygon class="st14" points="63.3,32.4 41.7,32.4 52.5,48.7 	"/>
	<polygon class="st15" points="84.9,32.4 63.3,32.4 74.1,48.7 	"/>
	<polygon class="st16" points="106.5,32.4 84.9,32.4 95.7,48.7 	"/>
	<polygon class="st17" points="128.2,32.4 106.5,32.4 117.3,48.7 	"/>
	<polygon class="st18" points="149.8,32.4 128.2,32.4 139,48.7 	"/>
	<polygon class="st19" points="30.9,48.7 20,64.9 41.7,64.9 	"/>
	<polygon class="st20" points="52.5,48.7 41.7,64.9 63.3,64.9 	"/>
	<polygon class="st21" points="74.1,48.7 63.3,64.9 84.9,64.9 	"/>
	<polygon class="st17" points="95.7,48.7 84.9,64.9 106.5,64.9 	"/>
	<polygon class="st22" points="117.3,48.7 106.5,64.9 128.2,64.9 	"/>
	<polygon class="st23" points="139,48.7 128.2,64.9 149.8,64.9 	"/>
	<polygon class="st24" points="160.6,48.7 149.8,64.9 171.4,64.9 	"/>
	<polygon class="st25" points="182.2,48.7 171.4,64.9 193,64.9 	"/>
	<polygon class="st26" points="52.5,48.7 30.9,48.7 41.7,64.9 	"/>
	<polygon class="st27" points="74.1,48.7 52.5,48.7 63.3,64.9 	"/>
	<polygon class="st28" points="95.7,48.7 74.1,48.7 84.9,64.9 	"/>
	<polygon class="st29" points="117.3,48.7 95.7,48.7 106.5,64.9 	"/>
	<polygon class="st17" points="139,48.7 117.3,48.7 128.2,64.9 	"/>
	<polygon class="st30" points="160.6,48.7 139,48.7 149.8,64.9 	"/>
	<polygon class="st31" points="182.2,48.7 160.6,48.7 171.4,64.9 	"/>
	<polygon class="st32" points="41.7,64.9 30.9,81.1 52.5,81.1 	"/>
	<polygon class="st33" points="63.3,64.9 52.5,81.1 74.1,81.1 	"/>
	<polygon class="st34" points="84.9,64.9 74.1,81.1 95.7,81.1 	"/>
	<polygon class="st35" points="106.5,64.9 95.7,81.1 117.3,81.1 	"/>
	<polygon class="st36" points="187.4,86.4 194.7,97.3 180.2,97.3 	"/>
	<polygon class="st37" points="204.2,94.6 198.4,86.2 209.6,86.2 	"/>
	<polygon class="st38" points="10.5,60.6 0,76.4 21.1,76.4 	"/>
	<polygon class="st27" points="77,23.8 72.8,30.6 81.6,30.6 	"/>
	<polygon class="st39" points="202.8,64.2 193.7,78.4 212.3,78.4 	"/>
	<polygon class="st40" points="26.3,84.7 18.7,96.3 33.9,96.3 	"/>
	<polygon class="st9" points="10.2,88.8 14.6,82.1 5.9,82.1 	"/>
	<polygon class="st41" points="161.8,46.8 167.3,38.2 156,38.2 	"/>
	<polygon class="st17" points="83.4,29 90.7,18.1 76.1,18.1 	"/>
	<polygon class="st36" points="128.2,64.9 117.3,81.1 139,81.1 	"/>
	<polygon class="st42" points="149.8,64.9 139,81.1 160.6,81.1 	"/>
	<polygon class="st43" points="171.4,64.9 160.6,81.1 182.2,81.1 	"/>
	<polygon class="st40" points="41.7,64.9 20,64.9 30.9,81.1 	"/>
	<polygon class="st27" points="63.3,64.9 41.7,64.9 52.5,81.1 	"/>
	<polygon class="st38" points="84.9,64.9 63.3,64.9 74.1,81.1 	"/>
	<polygon class="st44" points="106.5,64.9 84.9,64.9 95.7,81.1 	"/>
	<polygon class="st45" points="128.2,64.9 106.5,64.9 117.3,81.1 	"/>
	<polygon class="st46" points="149.8,64.9 128.2,64.9 139,81.1 	"/>
	<polygon class="st47" points="171.4,64.9 149.8,64.9 160.6,81.1 	"/>
	<polygon class="st39" points="193,64.9 171.4,64.9 182.2,81.1 	"/>
	<polygon class="st48" points="52.5,81.1 41.7,97.3 63.3,97.3 	"/>
	<polygon class="st49" points="74.1,81.1 63.3,97.3 84.9,97.3 	"/>
	<polygon class="st50" points="95.7,81.1 84.9,97.3 106.5,97.3 	"/>
	<polygon class="st51" points="117.3,81.1 106.5,97.3 128.2,97.3 	"/>
	<polygon class="st52" points="139,81.1 128.2,97.3 149.8,97.3 	"/>
	<polygon class="st53" points="160.6,81.1 149.8,97.3 171.4,97.3 	"/>
	<polygon class="st54" points="52.5,81.1 30.9,81.1 41.7,97.3 	"/>
	<polygon class="st55" points="74.1,81.1 52.5,81.1 63.3,97.3 	"/>
	<polygon class="st56" points="95.7,81.1 74.1,81.1 84.9,97.3 	"/>
	<polygon class="st57" points="117.3,81.1 95.7,81.1 106.5,97.3 	"/>
	<polygon class="st58" points="139,81.1 117.3,81.1 128.2,97.3 	"/>
	<polygon class="st59" points="160.6,81.1 139,81.1 149.8,97.3 	"/>
	<polygon class="st60" points="182.2,81.1 160.6,81.1 171.4,97.3 	"/>
</g>
<g>
	<g>
		<g>
			<path class="st39" d="M53.7,194.9l-1.5,3.3h-2.6l6.4-14.5h2.6l6.4,14.5h-2.6l-1.5-3.3H53.7z M60,192.7l-2.6-6l-2.6,6H60z"/>
			<path class="st39" d="M67.1,183.7h2.5v14.5h-2.5V183.7z"/>
			<path class="st39" d="M73.1,193.1v-2.2H80v2.2H73.1z"/>
			<path class="st39" d="M94.4,185.6c1.4,1.3,2.1,3,2.1,5.3s-0.7,4-2,5.4c-1.4,1.3-3.4,2-6.2,2h-4.8v-14.5h5
				C91,183.7,93,184.3,94.4,185.6z M94.1,191c0-3.3-1.9-5-5.7-5h-2.5v9.9h2.7c1.8,0,3.1-0.4,4-1.3C93.6,193.8,94.1,192.6,94.1,191z"
				/>
			<path class="st39" d="M111.3,188.4c0,2.4-1,3.9-3.1,4.5l3.8,5.3h-3.1l-3.5-4.9h-3.2v4.9h-2.5v-14.5h5.4c2.2,0,3.8,0.4,4.8,1.1
				C110.8,185.6,111.3,186.8,111.3,188.4z M108,190.5c0.5-0.4,0.7-1.1,0.7-2.1s-0.3-1.6-0.8-2c-0.5-0.4-1.4-0.5-2.7-0.5h-3.1v5.2
				h3.1C106.6,191.1,107.5,190.9,108,190.5z"/>
			<path class="st39" d="M114.8,183.7h2.5v14.5h-2.5V183.7z"/>
			<path class="st39" d="M127.9,198.2h-2.7l-5.8-14.5h2.7l4.5,10.8l4.5-10.8h2.7L127.9,198.2z"/>
			<path class="st39" d="M146,183.7v2.3h-7.7v3.8h7v2.2h-7v3.9h8v2.3h-10.4v-14.5H146z"/>
			<path class="st39" d="M160.3,183.7h2.5v14.5h-2.7l-8.2-10.6v10.6h-2.5v-14.5h2.5l8.4,10.8V183.7z"/>
		</g>
	</g>
	<path d="M153.5,140.2c2.6,1.1,3.6,3.1,3.5,5.9c-0.1,4.4,0,8.9,0,13.3c0,3.6-1.7,5.3-5.3,5.3c-2.5,0-5.1,0.1-7.7,0
		c-3-0.1-4.7-1.8-4.7-4.8c0-4.6,0.1-9.3,0-13.9c-0.1-2.8,0.9-4.8,3.7-5.8C146.4,140.2,150,140.2,153.5,140.2z M152.1,152.6
		c0-2,0-4.1,0-6.1c0-1.1-0.5-1.7-1.6-1.6c-1.5,0-3,0.1-4.5,0c-1.3-0.1-1.9,0.5-1.9,1.8c0.1,2.5,0,5.1,0,7.6c0.2,7-1.4,5.7,6.2,5.9
		c1.3,0,1.8-0.5,1.8-1.8C152.1,156.5,152.1,154.5,152.1,152.6z"/>
	<path d="M24.9,140.2c3.8,1.2,4.5,2.2,4.5,6.3c0,4.3,0,8.5,0,12.8c0,3.8-1.7,5.4-5.4,5.4c-4,0-8,0-12,0c0-5.5,0-11,0-16.5
		c1.5,0,3.1,0,4.8,0c0,4.1,0,7.9,0,12c2.1,0,4.1,0,6,0c1.3,0,1.7-0.5,1.7-1.8c0-3.8-0.1-7.6,0-11.4c0-1.5-0.6-1.9-2-1.9
		c-3.5,0-7.1,0-10.6,0c0-1.6,0-3.1,0-4.7C16.2,140.2,20.5,140.2,24.9,140.2z"/>
	<path d="M201.1,161.4c-1.3,2.5-3.4,3.3-6.1,3.2c-3.7-0.2-7.3,0-11.1,0c0-1.5,0-2.9,0-4.6c3.3,0,6.6-0.1,10,0
		c1.9,0.1,2.6-0.5,2.5-2.5c-0.1-3.5-0.1-7.1,0-10.6c0-1.5-0.5-2.2-2-2.1c-1.8,0.1-3.6,0-5.7,0c0,4.1,0,8,0,12c-1.7,0-3.2,0-4.8,0
		c0-5.6,0-11.2,0-16.7c4.3,0,8.7,0,13,0c2,0.5,3.5,1.6,4.3,3.5C201.1,149.6,201.1,155.5,201.1,161.4z"/>
	<path d="M49.6,140.2c0.2,1.5,0.3,2.9,0.5,4.7c-3.8,0-7.4,0-11.1,0c0,1.8,0,3.3,0,5c2.9,0,5.7,0,8.6,0c0,1.6,0,3,0,4.6
		c-2.9,0-5.8,0-8.7,0c0,1.9,0,3.6,0,5.5c3.6,0,7.1,0,10.8,0c0,1.6,0,3,0,4.5c-5.2,0-10.4,0-15.5,0c-0.1-0.1-0.2-0.2-0.2-0.4
		c0-8,0.1-16,0.1-24C39.4,140.2,44.5,140.2,49.6,140.2z"/>
	<path d="M70.1,140.2c0,1.5,0,3,0,4.7c-3.7,0-7.2,0-10.9,0c0,1.7,0,3.2,0,4.9c2.9,0,5.7,0,8.7,0c0,1.6,0,2.9,0,4.6
		c-2.9,0-5.7,0-8.7,0c0,2,0,3.7,0,5.5c3.6,0,7.1,0,10.8,0c0,1.6,0,3,0,4.5c-5.2,0-10.3,0-15.6,0c0-8.1,0-16.2,0-24.3
		C59.6,140.2,64.9,140.2,70.1,140.2z"/>
	<path d="M87.4,140.2c3.6,1.4,4.3,2.4,4.3,6.3c0,1.6,0.1,3.3,0,4.9c-0.1,2.9-1.8,4.6-4.7,4.7c-2.4,0.1-4.8,0-7.5,0
		c0,2.8,0,5.5,0,8.4c-1.7,0-3.2,0-4.8,0c-0.1-0.3-0.2-0.8-0.2-1.2c0-7.1,0-14.3,0-21.4c0-0.6,0.2-1.1,0.4-1.7
		C79,140.2,83.2,140.2,87.4,140.2z M79.4,151.5c2.1,0,4,0,5.9,0c1.3,0,1.6-0.8,1.4-1.8c-0.3-1.6,1.2-3.9-1.1-4.6
		c-1.9-0.5-4.1-0.1-6.2-0.1C79.4,147.2,79.4,149.2,79.4,151.5z"/>
	<path d="M113.8,140.2c4.1,1.6,3.7,5,3.5,8.6c-1.5,0-3,0-4.5,0c-0.1-0.1-0.2-0.2-0.2-0.3c-0.3-1.2-0.3-3.3-0.8-3.3
		c-2-0.4-4.1-0.2-6.2-0.1c-0.3,0-0.7,0.9-0.7,1.4c-0.1,4,0,8,0,12c0,1.3,0.6,1.8,1.8,1.7c0.3,0,0.5,0,0.8,0c1.4,0,3.2,0.4,4.2-0.3
		c0.8-0.5,0.8-2.4,1.2-3.7c1.3,0,2.8,0,4.4,0c0,1.6,0.1,3.1,0,4.6c-0.2,2.2-1.8,3.8-4,3.9c-3,0.1-6,0.1-9,0
		c-2.4-0.1-4.1-1.8-4.1-4.2c-0.1-5.3-0.1-10.6,0-15.9c0-2.3,1.6-3.5,3.5-4.3C107,140.2,110.4,140.2,113.8,140.2z"/>
	<path d="M178.3,140.2c0.1,0.6,0.4,1.2,0.4,1.8c0,5.8,0,11.5,0,17.3c0,3.8-1.6,5.4-5.4,5.4c-2.5,0-5,0.1-7.5,0
		c-2.5-0.1-4.4-1.7-4.4-4.1c-0.1-5,0-9.9,0-15.1c1.6,0,3,0,4.8,0c0,3.1,0,6.3,0,9.4c0.1,6.1-0.9,5.1,5.3,5.3c1.8,0,2.4-0.5,2.4-2.4
		c-0.1-5.9,0-11.8,0.1-17.7C175.4,140.2,176.9,140.2,178.3,140.2z"/>
	<path d="M126.4,140.2c0,5.8,0.1,11.5,0.1,17.3c0,0.8,0,1.5,0,2.5c3.4,0,6.7,0,10,0c0,1.6,0,3,0,4.5c-4.9,0-9.7,0-14.7,0
		c-0.1-0.4-0.2-0.8-0.2-1.2c0-7.1,0-14.3,0-21.4c0-0.6,0.3-1.1,0.4-1.7C123.5,140.2,124.9,140.2,126.4,140.2z"/>
	<path class="st39" d="M163.8,140.9c0.7,1.3,1.3,2.2,2,3.4c-1.4,0-2.5,0-4,0C162.5,143.1,163,142.1,163.8,140.9z"/>
</g>
</svg>
