<?xml version="1.0" encoding="utf-8"?>
<!-- Generator: Adobe Illustrator 21.1.0, SVG Export Plug-In . SVG Version: 6.00 Build 0)  -->
<svg version="1.1" id="Layer_1" xmlns="http://www.w3.org/2000/svg" xmlns:xlink="http://www.w3.org/1999/xlink" x="0px" y="0px"
	 viewBox="0 0 127.4 92.5" style="enable-background:new 0 0 127.4 92.5;" xml:space="preserve">
<style type="text/css">
	.st0{fill:#DE1D5E;}
	.st1{fill:#EE4424;}
	.st2{fill:#F68F1E;}
	.st3{fill:#E1E327;}
	.st4{fill:#6DAB3D;}
</style>
<g>
	<g>
		<path class="st0" d="M78.7,1.5l11.5,15.6l0,0.1l-0.1,0.1L63.8,49.6l-0.1,0.1l-0.1-0.1l-0.4-0.5L63.1,49l0.1-0.1l-0.1-0.1l0,0l0,0
			l0,0l0,0l-26-31.6L37,17.1l0-0.1L48.3,1.8l0,0l0.3-0.3l0,0h0h29.9h0.1L78.7,1.5L78.7,1.5z M92,17L79.5,0.1l0,0L79.4,0h-0.1h-0.1
			H48.1h0H48l-0.1,0.1l0,0l0,0l-0.7,0.9l0,0l0,0l0,0l0,0L35.3,17l0,0.1l-0.1,0.1l0.1,0.1l0.1,0.1l25.9,31.6l0.1,0.1L61.3,49l0,0
			l0.1,0.1l0,0l0,0l0,0l0,0l2.2,2.5l0.1,0.1l0,0l0,0l0.1,0.2l0.1-0.2l0.1-0.1l0,0l0,0L92,17.3l0.1-0.1l0.1-0.1L92,17L92,17L92,17
			L92,17z"/>
		<g>
			<path class="st1" d="M61.6,44c2.8-10.7,7.3-17.9,20.7-22.7C69.4,18.1,56.5,30.2,61.6,44z"/>
			<path class="st1" d="M72.6,35.3c1.7,0,3-1.3,3-3c0-1.7-1.3-3-3-3c-1.7,0-3,1.3-3,3C69.6,34,70.9,35.3,72.6,35.3z"/>
			<path class="st2" d="M65.9,44c-3.6-11.4-9.3-17.9-20.7-22.7C59.5,19.4,69.8,30.7,65.9,44z"/>
			<path class="st2" d="M54.4,35.1c1.7,0,3-1.3,3-3c0-1.7-1.3-3-3-3c-1.7,0-3,1.3-3,3C51.4,33.7,52.7,35.1,54.4,35.1z"/>
			<path class="st3" d="M73.4,17.6c1.7,0,3-1.3,3-3s-1.3-3-3-3c-1.7,0-3,1.3-3,3S71.7,17.6,73.4,17.6z"/>
			<path class="st3" d="M61.6,2.9c2.8,10.7,7.3,17.9,20.7,22.7C69.4,28.8,56.5,16.6,61.6,2.9z"/>
			<path class="st4" d="M55.5,17.6c1.7,0,3-1.3,3-3s-1.3-3-3-3s-3,1.3-3,3S53.9,17.6,55.5,17.6z"/>
			<path class="st4" d="M65.9,2.9c-3.6,11.4-9.3,17.9-20.7,22.7C59.5,27.5,69.8,16.2,65.9,2.9z"/>
		</g>
	</g>
	<g>
		<g>
			<path class="st0" d="M5.5,88.4h1.8v2.8c-0.8,0.9-1.8,1.3-3.2,1.3c-1.1,0-2.1-0.4-2.9-1.1S0,89.6,0,88.4c0-1.1,0.4-2.1,1.2-2.9
				C2,84.8,2.9,84.4,4,84.4s2.1,0.4,2.9,1.1L6,86.8c-0.3-0.3-0.7-0.5-1-0.6c-0.3-0.1-0.6-0.2-1-0.2c-0.7,0-1.2,0.2-1.7,0.7
				c-0.5,0.5-0.7,1-0.7,1.8c0,0.7,0.2,1.3,0.6,1.8c0.4,0.5,1,0.7,1.6,0.7s1.1-0.1,1.5-0.3L5.5,88.4L5.5,88.4L5.5,88.4z"/>
			<path class="st0" d="M14.8,87.2c0,1.3-0.5,2.1-1.5,2.4l2,2.8h-2.1l-1.7-2.5h-1.2v2.5H8.5v-7.8h3c1.2,0,2.1,0.2,2.6,0.6
				C14.6,85.6,14.8,86.3,14.8,87.2z M12.8,88.1c0.2-0.2,0.3-0.5,0.3-0.9c0-0.4-0.1-0.7-0.3-0.9c-0.2-0.2-0.6-0.2-1.2-0.2h-1.3v2.3
				h1.3C12.1,88.4,12.5,88.3,12.8,88.1z"/>
			<path class="st0" d="M22.8,91.3c-0.8,0.8-1.8,1.1-2.9,1.1c-1.1,0-2.1-0.4-2.9-1.1c-0.8-0.8-1.2-1.7-1.2-2.9s0.4-2.1,1.2-2.9
				c0.8-0.8,1.8-1.1,2.9-1.1c1.1,0,2.1,0.4,2.9,1.1c0.8,0.8,1.2,1.7,1.2,2.9S23.6,90.5,22.8,91.3z M22.2,88.4c0-0.7-0.2-1.3-0.7-1.8
				c-0.5-0.5-1-0.7-1.7-0.7c-0.6,0-1.2,0.2-1.7,0.7c-0.5,0.5-0.7,1.1-0.7,1.8c0,0.7,0.2,1.3,0.7,1.8c0.5,0.5,1,0.7,1.7,0.7
				c0.6,0,1.2-0.2,1.7-0.7C22,89.7,22.2,89.1,22.2,88.4z"/>
			<path class="st0" d="M27.2,90.4c0.3,0.4,0.7,0.5,1.2,0.5s0.9-0.2,1.2-0.5c0.3-0.3,0.4-0.9,0.4-1.5v-4.3h1.7V89
				c0,1.1-0.3,2-0.9,2.6s-1.4,0.9-2.4,0.9s-1.8-0.3-2.4-0.9c-0.6-0.6-0.9-1.5-0.9-2.6v-4.4h1.7v4.3C26.8,89.5,27,90,27.2,90.4z"/>
			<path class="st0" d="M38.6,85.3c0.5,0.5,0.8,1.2,0.8,2.1c0,1-0.3,1.7-0.9,2.1c-0.6,0.5-1.4,0.7-2.6,0.7h-1v2.2h-1.7v-7.8H36
				C37.2,84.6,38.1,84.8,38.6,85.3z M37.4,88.4c0.2-0.2,0.3-0.6,0.3-1c0-0.5-0.1-0.8-0.4-1c-0.3-0.2-0.7-0.3-1.3-0.3h-1v2.6h1.2
				C36.8,88.7,37.2,88.6,37.4,88.4z"/>
			<path class="st0" d="M49.4,91.3c-0.8,0.8-1.8,1.1-2.9,1.1c-1.1,0-2.1-0.4-2.9-1.1c-0.8-0.8-1.2-1.7-1.2-2.9s0.4-2.1,1.2-2.9
				c0.8-0.8,1.8-1.1,2.9-1.1c1.1,0,2.1,0.4,2.9,1.1c0.8,0.8,1.2,1.7,1.2,2.9C50.6,89.6,50.2,90.5,49.4,91.3z M48.9,88.4
				c0-0.7-0.2-1.3-0.7-1.8c-0.5-0.5-1-0.7-1.7-0.7c-0.6,0-1.2,0.2-1.7,0.7c-0.5,0.5-0.7,1.1-0.7,1.8c0,0.7,0.2,1.3,0.7,1.8
				c0.5,0.5,1,0.7,1.7,0.7c0.6,0,1.2-0.2,1.7-0.7C48.6,89.7,48.9,89.1,48.9,88.4z"/>
			<path class="st0" d="M57.2,84.6v1.5h-3.6v1.7H57v1.5h-3.4v3h-1.7v-7.8L57.2,84.6L57.2,84.6z"/>
			<path class="st0" d="M64.3,90.8c0.9,0,1.6-0.3,2.1-1l1.1,1.1c-0.9,1-1.9,1.5-3.1,1.5s-2.2-0.4-3-1.1c-0.8-0.7-1.2-1.7-1.2-2.9
				c0-1.1,0.4-2.1,1.2-2.9c0.8-0.8,1.8-1.1,2.9-1.1c1.3,0,2.4,0.5,3.2,1.5l-1.1,1.2c-0.6-0.7-1.2-1-2.1-1c-0.7,0-1.2,0.2-1.7,0.6
				c-0.5,0.4-0.7,1-0.7,1.7c0,0.7,0.2,1.3,0.7,1.7C63.1,90.6,63.6,90.8,64.3,90.8z"/>
			<path class="st0" d="M75,91.3c-0.8,0.8-1.8,1.1-2.9,1.1c-1.1,0-2.1-0.4-2.9-1.1c-0.8-0.8-1.2-1.7-1.2-2.9s0.4-2.1,1.2-2.9
				c0.8-0.8,1.8-1.1,2.9-1.1c1.1,0,2.1,0.4,2.9,1.1c0.8,0.8,1.2,1.7,1.2,2.9S75.8,90.5,75,91.3z M74.4,88.4c0-0.7-0.2-1.3-0.7-1.8
				c-0.5-0.5-1-0.7-1.7-0.7c-0.6,0-1.2,0.2-1.7,0.7c-0.5,0.5-0.7,1.1-0.7,1.8c0,0.7,0.2,1.3,0.7,1.8c0.5,0.5,1,0.7,1.7,0.7
				c0.6,0,1.2-0.2,1.7-0.7C74.2,89.7,74.4,89.1,74.4,88.4z"/>
			<path class="st0" d="M84.3,87.5l-2.1,4.3h-1L79,87.5v4.9h-1.7v-7.8h2.4l2,4.3l2-4.3h2.4v7.8h-1.7L84.3,87.5L84.3,87.5z"/>
			<path class="st0" d="M93.1,85.3c0.5,0.5,0.8,1.2,0.8,2.1c0,1-0.3,1.7-0.9,2.1c-0.6,0.5-1.4,0.7-2.6,0.7h-1v2.2h-1.7v-7.8h2.8
				C91.6,84.6,92.5,84.8,93.1,85.3z M91.8,88.4c0.2-0.2,0.3-0.6,0.3-1c0-0.5-0.1-0.8-0.4-1c-0.3-0.2-0.7-0.3-1.3-0.3h-1v2.6h1.2
				C91.2,88.7,91.6,88.6,91.8,88.4z"/>
			<path class="st0" d="M100.1,92.4l-0.7-1.7h-3.3l-0.7,1.7h-1.8l3.4-7.8h1.7l3.4,7.8H100.1z M97.7,86.9l-1,2.3h2L97.7,86.9z"/>
			<path class="st0" d="M108,84.6h1.7v7.8H108l-3.7-4.9v4.9h-1.7v-7.8h1.6l3.8,5V84.6z"/>
			<path class="st0" d="M111.3,84.6h1.7v7.8h-1.7V84.6z"/>
			<path class="st0" d="M120.3,84.6v1.6h-3.9v1.6h3.5v1.5h-3.5v1.6h4v1.6h-5.7v-7.8L120.3,84.6L120.3,84.6z"/>
			<path class="st0" d="M123.5,86.1c-0.2,0.1-0.2,0.3-0.2,0.5c0,0.2,0.1,0.4,0.3,0.5c0.2,0.1,0.7,0.3,1.4,0.5
				c0.7,0.2,1.3,0.5,1.7,0.8c0.4,0.4,0.6,0.9,0.6,1.6c0,0.7-0.3,1.3-0.8,1.7c-0.5,0.4-1.2,0.6-2.1,0.6c-1.2,0-2.4-0.5-3.3-1.4l1-1.3
				c0.8,0.7,1.6,1.1,2.3,1.1c0.3,0,0.6-0.1,0.7-0.2c0.2-0.1,0.3-0.3,0.3-0.6c0-0.2-0.1-0.4-0.3-0.6c-0.2-0.1-0.6-0.3-1.1-0.4
				c-0.9-0.2-1.6-0.5-2-0.9c-0.4-0.3-0.6-0.9-0.6-1.6c0-0.7,0.3-1.3,0.8-1.7c0.5-0.4,1.2-0.6,2-0.6c0.5,0,1,0.1,1.6,0.3
				c0.5,0.2,1,0.4,1.4,0.7l-0.9,1.3c-0.7-0.5-1.4-0.8-2.1-0.8C123.9,85.9,123.7,86,123.5,86.1z"/>
		</g>
	</g>
	<g>
		<path class="st0" d="M24.5,68.3h3.6V74c-1.6,1.8-3.8,2.6-6.6,2.6c-2.4,0-4.3-0.8-5.9-2.3c-1.6-1.6-2.4-3.5-2.4-5.9
			c0-2.4,0.8-4.4,2.4-5.9c1.6-1.6,3.6-2.4,5.9-2.4s4.3,0.7,6,2.3L25.7,65c-0.7-0.6-1.4-1.1-2-1.3c-0.6-0.2-1.3-0.3-2-0.3
			c-1.4,0-2.5,0.5-3.4,1.4c-0.9,0.9-1.4,2.1-1.4,3.7c0,1.5,0.5,2.7,1.3,3.6c0.9,0.9,2,1.4,3.2,1.4c1.2,0,2.3-0.2,3.1-0.7L24.5,68.3
			L24.5,68.3z"/>
		<path class="st0" d="M41.4,74.7c-1.4,1.3-3,2-4.9,2c-1.9,0-3.4-0.6-4.6-1.7c-1.2-1.1-1.8-2.7-1.8-4.6s0.6-3.5,1.9-4.6
			c1.3-1.1,2.7-1.7,4.4-1.7c1.7,0,3.1,0.5,4.3,1.5c1.2,1,1.8,2.4,1.8,4.2v1.8h-9c0.1,0.7,0.5,1.2,1,1.7c0.6,0.4,1.3,0.6,2,0.6
			c1.2,0,2.2-0.4,3-1.2L41.4,74.7z M38.1,67.4c-0.5-0.4-1-0.6-1.7-0.6c-0.7,0-1.3,0.2-1.9,0.6c-0.6,0.4-0.9,1-1,1.7h5.4
			C38.8,68.3,38.6,67.8,38.1,67.4z"/>
		<path class="st0" d="M56,69.8v6.6h-3.4v-6.7c0-1-0.2-1.7-0.5-2.1c-0.3-0.5-0.8-0.7-1.4-0.7c-0.7,0-1.3,0.2-1.8,0.7
			c-0.5,0.5-0.8,1.2-0.8,2.2v6.6h-3.4V64.1h3.4v1.4c0.9-1.1,2-1.6,3.3-1.6c0.8,0,1.5,0.2,2.1,0.7c0.6,0.5,1.1,1,1.4,1.7
			c0.5-0.7,1.1-1.3,1.9-1.7c0.8-0.4,1.6-0.6,2.4-0.6c1.4,0,2.6,0.4,3.5,1.3c0.9,0.9,1.3,2.1,1.3,3.7v7.5h-3.4v-6.7
			c0-1.9-0.7-2.8-2.1-2.8c-0.7,0-1.3,0.2-1.8,0.7C56.2,68.1,56,68.8,56,69.8z"/>
		<path class="st0" d="M72.6,69.5v-2.8H76v2.8h1.8v3.1H76v3.8h-3.4v-3.8h-6.4v-2.7l5.7-9.4h3.9l-5.4,9.1L72.6,69.5L72.6,69.5z"/>
		<path class="st0" d="M91.5,69.8v6.6H88v-6.7c0-1-0.2-1.7-0.5-2.1c-0.3-0.5-0.8-0.7-1.4-0.7s-1.3,0.2-1.8,0.7
			c-0.5,0.5-0.8,1.2-0.8,2.2v6.6h-3.4V64.1h3.4v1.4c0.9-1.1,2-1.6,3.3-1.6c0.8,0,1.5,0.2,2.1,0.7c0.6,0.5,1.1,1,1.4,1.7
			c0.5-0.7,1.1-1.3,1.9-1.7c0.8-0.4,1.6-0.6,2.4-0.6c1.4,0,2.6,0.4,3.5,1.3c0.9,0.9,1.3,2.1,1.3,3.7v7.5h-3.4v-6.7
			c0-1.9-0.7-2.8-2.1-2.8c-0.7,0-1.3,0.2-1.8,0.7C91.7,68.1,91.5,68.8,91.5,69.8z"/>
		<path class="st0" d="M113.1,74.7c-1.4,1.3-3,2-4.9,2s-3.4-0.6-4.6-1.7c-1.2-1.1-1.8-2.7-1.8-4.6s0.6-3.5,1.9-4.6
			c1.3-1.1,2.7-1.7,4.4-1.7c1.7,0,3.1,0.5,4.3,1.5c1.2,1,1.8,2.4,1.8,4.2v1.8h-9c0.1,0.7,0.5,1.2,1,1.7c0.6,0.4,1.3,0.6,2,0.6
			c1.2,0,2.2-0.4,3-1.2L113.1,74.7z M109.8,67.4c-0.5-0.4-1-0.6-1.7-0.6c-0.7,0-1.3,0.2-1.9,0.6c-0.6,0.4-0.9,1-1,1.7h5.4
			C110.6,68.3,110.3,67.8,109.8,67.4z"/>
	</g>
</g>
</svg>
