<?xml version="1.0" encoding="utf-8"?>
<!-- Generator: Adobe Illustrator 21.1.0, SVG Export Plug-In . SVG Version: 6.00 Build 0)  -->
<svg version="1.1" id="Layer_1" xmlns="http://www.w3.org/2000/svg" xmlns:xlink="http://www.w3.org/1999/xlink" x="0px" y="0px"
	 viewBox="0 0 2514.6 1430.8" style="enable-background:new 0 0 2514.6 1430.8;" xml:space="preserve">
<style type="text/css">
	.st0{fill:#3C3C3C;}
	.st1{fill-rule:evenodd;clip-rule:evenodd;fill:url(#SVGID_1_);}
	.st2{opacity:0.1;fill-rule:evenodd;clip-rule:evenodd;fill:#FFFFFF;}
	.st3{opacity:0.3;}
	.st4{opacity:0.3;fill:#000100;}
	.st5{opacity:0.2;fill-rule:evenodd;clip-rule:evenodd;fill:#FFFFFF;}
	.st6{opacity:0.15;fill-rule:evenodd;clip-rule:evenodd;fill:#000100;}
	.st7{opacity:0.22;fill-rule:evenodd;clip-rule:evenodd;fill:#000100;}
	.st8{fill-rule:evenodd;clip-rule:evenodd;fill:#FFFFFF;}
</style>
<g>
	<g>
		<path class="st0" d="M222.2,1020.6c10.4,0,20.9,0,31.3,0c7.1,0,9.9,3.4,8,10.2c-1.5,5.8-3.5,11.3-6.5,16.6
			c-3.1,5.5-7.9,9-13.8,8.1c-7.6-1.2-8.6,2.5-9.9,8.5c-12.3,53.8-37.7,100.3-78.7,137.6c-55.6,50.6-112.5,23.1-136.7-30.4
			c-16.2-35.7-18.5-73.2-13.6-111.4c9.2-71.1,33.9-136.4,76.1-194.5c23-31.7,51.2-57.5,89.8-69.4c10.6-3.3,21.6-4.9,32.7-4.2
			c24.8,1.7,42.8,17.4,49.9,45.2c8.8,34.5,4.7,68.1-11.2,100.1c-3.5,7-8.3,13.1-14.1,18.4c-9.6,8.7-20.8,8.8-30.4,0
			c-3.1-2.8-6-5.9-8.5-9.2c-3.3-4.2-7.8-8.4-8.8-13.3c-1.3-6.5,7-6.2,10.5-9.7c24.8-24.3,32.1-53.9,25.6-86.9
			c-3.3-16.8-14-22.4-30.7-18.9c-19.3,4-32.8,16.6-44.8,30.9c-26.9,31.7-43.2,69.2-57,107.8c-16.7,46.8-28.2,94.8-31.7,144.6
			c-1.6,22.5-0.7,44.7,6.3,66.4c2.2,6.8,5.2,13.3,9.5,19.2c11.2,15.4,27.9,19.8,45,11.3c17.8-8.9,31-23.2,42.4-39.1
			c20.8-29,34.8-61,42.4-95.9c1.4-6.4,0.1-8.3-6.6-8.1c-20.6,0.5-41.2,0.6-61.7,3.1c-8,1-12.8-0.6-14.2-9
			c-1.3-7.8,3.8-16.5,10.8-17.8c24.9-4.9,50.2-7,75.6-8.4c7.7-0.4,15.5-0.1,23.3-0.1C222.2,1021.7,222.2,1021.1,222.2,1020.6z"/>
		<path class="st0" d="M511.4,1028.8c-5.4-3.6-9.5,1.4-12.7,5.2c-15.6,18.1-31.5,36-49.8,51.4c-17.1,14.4-34.3,29-56.8,34.5
			c-25.3,6.1-46.2-6.7-50.8-30.7c-1.1-5.8-0.1-9.8,5.4-13.5c15.7-10.3,31.2-21,46.2-32.3c21.8-16.4,40.7-35.2,45.1-64.1
			c2.8-18.1-7.3-31-25.5-32.6c-11.9-1-23.6,0.4-33.8,6.4c-47.3,27.4-72.4,69.1-77.7,113.3c-0.2,45.6,18.4,72.8,49.4,81.2
			c19.2,5.2,37.3,0,54.6-8.2c45-21.4,78-56.4,106.1-96.5C514,1038.7,517.4,1032.8,511.4,1028.8z M370.8,987.4
			c4.4-5.3,9.5-10,15.8-12.9c10.1-4.7,16.9-0.1,16.8,11.3c-0.1,9.4-4.6,17.2-10,24.3c-13.3,17.7-32.1,29.1-51,43.1
			C347,1027.7,355.4,1006,370.8,987.4z"/>
		<path class="st0" d="M839.7,1087.3c11.8-14.7,21.8-30.6,31.3-46.8c3.1-5.3,7.9-12.2,1.4-16.8c-7.3-5.3-10.9,3.1-14.5,7.6
			c-9.7,12.4-18.9,25.1-28.8,38.4c0,0-6,8-12.3,15s-13.9,13.9-13.9,13.9c-7.7,7-15.2,14.5-25.1,18.5c-6.1,2.5-12.9,4.9-18.7,0.2
			c-5.6-4.5-4.6-11.2-3-17.5c5.2-21.1,10.7-42.2,15.5-63.4c4.4-19.3,7.7-38.8,0.9-58.2c-5.4-15.3-15.2-21.1-30.9-19.2
			c-15.3,1.8-27.2,10-38.8,19.1c-12,9.3-21.3,21.3-32.1,33.6c-0.6-11.7,0.8-22.1-2-32.3c-5-18.4-16.8-25.2-35.1-20
			c-12,3.4-22.1,10.2-31.8,17.7c-12.7,9.8-22.8,22.3-35.1,35.1c1.3-5,2.2-8.1,2.9-11.3c1.3-6.4,3-12.8,3.5-19.3
			c0.9-11.9-4.7-16.8-16.3-14.4c-5.8,1.2-11.4,3.3-17.1,5c-5.4,1.7-9.5,3.5-8.2,11.1c0.8,4.7-0.8,10.1-1.9,15
			c-9.4,40-19.1,80-28.6,120.1c-1.4,6.1-3.1,12.2-2.7,18.5c0.6,9.1,5.7,13.3,14.4,10.4c14.3-4.7,29.4-8.9,29.2-28.9
			c-0.1-4.6,2.2-9.2,3.4-13.8c7.6-30.1,18.5-58.6,38.2-83.1c9.1-11.3,19.5-21.1,34.1-24.9c8.7-2.3,14.1,1.3,15.1,10.1
			c0.7,6.2,0.2,12.5-0.8,18.7c-4.9,32.3-14.6,63.3-24.6,94.2c-2.4,7.4-7.8,16.5-1.2,22.7c6.5,6.1,15.9,1.5,24-0.5
			c7.3-1.8,10.9-5.8,12.3-14c5.3-32.1,16-62.4,33.8-89.8c10.2-15.7,21.9-30,39.5-38c10.5-4.8,18.4,0.1,19.2,11.6
			c0.4,5.4-1.3,10.6-2.5,15.9c-6.6,28.4-15.8,56.3-17.8,85.7c-1.5,21.9,9.3,34.6,31.1,36.3c12.9,1,24.9-1.9,36.1-8.1
			c11.5-6.4,21.6-14.8,31.4-23.6C824.4,1107.1,839.7,1087.3,839.7,1087.3z"/>
		<path class="st0" d="M1055.4,1056.1c-5.9-1.5-8.7-2.8-6.9-10.4c6.5-27.9,12.1-56,20.3-83.5l0,0c0,0,0.1-0.2,0.1-0.5
			c0.2-0.6,0.3-1.2,0.5-1.8c0.3-1.1,0.7-2.1,1-3.1c3.4-11,10.9-36,12.8-45.2c2.5-12,5.5-27.8-12.9-28.3c-4.6,0.3-9.1,1.1-13.7,2.1
			c-2,0.5-4,1.1-6.1,1.5c-18.4,3.6-31.2,12.7-42.9,28.8c-35,47.7-74.4,91.9-116.6,133.4c-5.9,5.8-8.6,12.1-6,20.1
			c1.5,4.5,2.7,9.2,4.8,13.4c9.5,18.1,12.4,19.4,31.8,14.6c25-6.2,50.6-7.9,76.2-10.1c6.7-0.6,6.4,2,5.1,7.1
			c-7.8,30.6-15.3,61.3-22.8,92c-1.3,5.5-2.6,11.1-2.8,16.7c0,0.5,0,0.9-0.1,1.3v0.1c0,0-1.6,22.7,6.6,25.7c8.2,3,32.3,2.7,35.5,1.8
			c3.1-0.8,6.2-13.6,6.9-24.8l0,0c0-0.1,0-0.2,0-0.3l0,0l0,0c0-1,0.1-2,0.2-3.3c2-35.5,7.6-70.5,12.9-105.6c1.2-7.7,4-6.4,8.4-3.6
			c4.8,3,9.3,6.4,13.2,12.6c3.6-8.5,6.7-15.2,9.4-22.1C1076.3,1069.2,1071.7,1060.1,1055.4,1056.1z M1040.7,948.3
			c-8.5,33.5-17.3,67-25.9,100.4c-0.9,3.5-1.5,6.6-6.3,7.3c-26.9,3.7-54,5.7-83.1,7.5c40-47.5,79-93.8,119.8-142.1
			C1045.7,932.6,1042.7,940.4,1040.7,948.3z"/>
		<path class="st0" d="M1829,1027.6c-5.4-3.6-9.5,1.4-12.7,5.2c-15.6,18.1-31.5,36-49.8,51.4c-17.1,14.4-34.3,29-56.8,34.5
			c-25.3,6.1-46.2-6.7-50.8-30.7c-1.1-5.8-0.1-9.8,5.4-13.5c15.7-10.3,31.2-21,46.2-32.3c21.8-16.4,40.7-35.2,45.1-64.1
			c2.8-18.1-7.3-31-25.5-32.6c-11.9-1-23.6,0.4-33.8,6.4c-47.3,27.4-72.4,69.1-77.7,113.3c-0.2,45.6,18.4,72.8,49.4,81.2
			c19.2,5.2,37.3,0,54.6-8.2c45-21.4,78-56.4,106.1-96.5C1831.7,1037.5,1835.1,1031.6,1829,1027.6z M1688.5,986.2
			c4.4-5.3,9.5-10,15.8-12.9c10.1-4.7,16.9-0.1,16.8,11.3c-0.1,9.4-4.6,17.2-10,24.3c-13.3,17.7-32.1,29.1-51,43.1
			C1664.7,1026.5,1673,1004.8,1688.5,986.2z"/>
		<path class="st0" d="M1632.4,1022c-7.3-5.3-10.9,3.1-14.5,7.6c-9.7,12.4-18.9,25.1-28.8,38.4c0,0-6,8-12.3,15
			s-13.9,13.9-13.9,13.9c-7.7,7-15.2,14.5-25.1,18.5c-6.1,2.5-12.9,4.9-18.7,0.2c-5.6-4.5-4.6-11.2-3-17.5
			c5.2-21.1,10.7-42.2,15.5-63.4c4.4-19.3,7.7-38.8,0.9-58.2c-5.4-15.3-15.2-21.1-30.9-19.2c-15.3,1.8-27.2,10-38.8,19.1
			c-12,9.3-21.3,21.3-32.1,33.6c-0.6-11.7,0.8-22.1-2-32.3c-5-18.4-16.8-25.2-35.1-20c-8.6,2.5-16.2,6.6-23.5,11.6l0,0
			c-2.8,1.9-5.5,3.9-8.3,6c-12.8,9.8-22.8,22.3-35.4,35.4c5.2-16.9,6.8-32.4,12.2-47.1c5.1-13.9,7.4-28.6,6.7-43.1
			c-0.6-11.4-1.8-18-5.5-22.3c-0.1-0.1-0.3-0.3-0.4-0.4c-0.5-0.5-1-1-1.6-1.5c-5.8-4.1-21.9-6.8-31.4,0.3
			c-8.6,6.4-10.3,25.5-10.6,32.8c0,0.9,0,1.9-0.1,2.8l0,0l0,0c-0.2,2.8-0.8,5.8-1.7,9c-13.2,46.6-22.4,94-31.2,141.4
			c-3.3,17.7-8.4,35.5-4.6,53.9c1.7,8.2,6,11.4,14.1,8.9c6.8-2.1,13.1-5.7,19.9-8.1c4.2-1.5,6-4.1,6.9-8.3c1.9-9,4-18,6.2-27
			c7.5-29.8,18.4-58,37.8-82.3c7.3-9.1,15.4-17.2,25.8-22.1l0,0c2.6-1.2,5.4-2.2,8.3-3c8.7-2.3,14.1,1.3,15.1,10.1
			c0.7,6.2,0.2,12.5-0.8,18.7c-4.9,32.3-14.6,63.3-24.6,94.2c-2.4,7.4-7.8,16.5-1.2,22.7c6.5,6.1,15.9,1.5,24-0.5
			c7.3-1.8,10.9-5.8,12.3-14c5.3-32.1,16-62.4,33.8-89.8c10.2-15.7,21.9-30,39.5-38c10.5-4.8,18.4,0.1,19.2,11.6
			c0.4,5.4-1.3,10.6-2.5,15.9c-6.6,28.4-15.8,56.3-17.8,85.7c-1.5,21.9,9.3,34.6,31.1,36.3c12.9,1,24.9-1.9,36.1-8.1
			c11.5-6.4,21.6-14.8,31.4-23.6c11.1-10.6,26.5-30.4,26.5-30.4c11.8-14.7,21.8-30.6,31.3-46.8
			C1634.1,1033.5,1638.9,1026.6,1632.4,1022z"/>
		<g>
			<path class="st0" d="M1295.9,932L1295.9,932L1295.9,932L1295.9,932z"/>
			<path class="st0" d="M1339.6,897.6c0.1,0.2,0.2,0.3,0.4,0.4C1339.9,897.9,1339.7,897.7,1339.6,897.6z"/>
			<path class="st0" d="M1306.6,896.4c9.5-7.2,25.6-4.5,31.4-0.3c-3.5-2.9-8.7-4.7-16.4-6.6c-6.9-1.8-14-3.1-21.1-3.5
				c-39.1-2-78.2-1.1-117.4-1.3l-51.4-0.6c-17,0-33,1.3-48.8-0.5c-4.4-0.5-8.5-0.5-12.6-0.2c18.4,0.5,15.4,16.3,12.9,28.3
				c-1.9,9.2-9.5,34.2-12.8,45.2c10.2-31.2,27.7-43.7,64.1-47.5l60,0.1c26.6,0,51-0.1,75.4,0c16.8,0.1,25.8,6.8,26,19.8
				C1296.3,921.9,1298,902.8,1306.6,896.4z"/>
			<path class="st0" d="M1068.8,962.2L1068.8,962.2c0.1-0.2,0.1-0.3,0.1-0.5C1068.8,962,1068.8,962.2,1068.8,962.2z"/>
		</g>
	</g>
	<path class="st0" d="M1011.5,1243.9c-58,0-112.5-22.6-153.4-63.6c-41-41-63.6-95.5-63.6-153.4s22.6-112.5,63.6-153.4
		c41-41,95.5-63.6,153.4-63.6s112.5,22.6,153.4,63.6c41,41,63.6,95.5,63.6,153.4c0,58-22.6,112.5-63.6,153.4
		C1123.9,1221.4,1069.4,1243.9,1011.5,1243.9z M1011.5,838.9c-103.7,0-188,84.3-188,188c0,103.7,84.3,188,188,188s188-84.3,188-188
		C1199.5,923.3,1115.1,838.9,1011.5,838.9z"/>
	<g>
		<linearGradient id="SVGID_1_" gradientUnits="userSpaceOnUse" x1="1523.3782" y1="458.7847" x2="2509.0381" y2="458.7847">
			<stop  offset="2.564103e-02" style="stop-color:#DB3D6B"/>
			<stop  offset="0.154" style="stop-color:#CC3D70"/>
			<stop  offset="0.4012" style="stop-color:#A43E7E"/>
			<stop  offset="0.4897" style="stop-color:#943E83"/>
			<stop  offset="0.5019" style="stop-color:#923E84"/>
			<stop  offset="0.8077" style="stop-color:#563E90"/>
			<stop  offset="0.9538" style="stop-color:#3F3E95"/>
		</linearGradient>
		<path class="st1" d="M1737.1,911.9l13.2-17.3c16.1-21.3,29-39.9,37.6-68.8c2.4-8.1,3.5-16.4,4.6-25.2l1.2-9.7l-4.7-1.4
			c-6.9-2-13.8-5.6-20.4-9c-3.7-1.9-7.5-3.9-11.4-5.6c-19.4-8.6-39.2-20.2-62.5-36.7c-68.4-48.3-115.7-105-144.6-173.4
			c-5.2-12.3-9-25.2-13-38.8c-0.8-2.7-1.6-5.4-2.4-8.2c-3.2-10.9-4.9-22.6-6.7-35c-0.8-5.2-1.5-10.5-2.4-15.8l-1.2-18.4l0-0.3
			c-1.2-7.8-1.5-25.2-0.2-33.6c0.8-5.1,0.9-9.9,1-14.6c0.1-4.6,0.2-8.9,0.9-13.1c0.9-4.8,1.6-9.6,2.4-14.3c2.7-16.2,5.3-31.6,9.8-46
			c15.6-50.1,37.6-91.2,73.5-137.4c3.7-4.7,7.9-9,12.3-13.6c4.1-4.2,8.2-8.5,12-13.2c5.3-6.6,12.6-13.6,22.5-21.5l13.8-12.3
			c11.1-8.6,22.8-17.8,34.9-26.3c49.1-34.7,109.4-61.3,179.2-79.1c13.9-3.5,28.1-6,43.1-8.5c6.7-1.1,13.4-2.3,20.2-3.6l25.5-3
			l34.8-2.4l13.1-0.4c1.4,0,3,0,4.6,0c116.7,0,212.4,26.1,301,82.1c40.7,25.7,75.7,57.2,101.2,91c10.4,13.7,18.5,25.4,25.4,36.6
			c2.5,4.1,4.7,8.2,7,12.6c1.8,3.4,3.6,6.9,5.7,10.4c32.6,56.2,53.9,159.4,31.3,247.9c-9.3,36.6-21.9,68.6-37.5,95.1
			c-62.3,106.2-161.9,183.5-288,223.5c-22.3,7.1-45.5,12.1-70,17.5l-1.5,0.3c-35.5,7.8-76.3,8.9-115.1,8.9h-37.4
			c-4.2-0.6-10.1-0.7-13.3-0.7c-3.1,0-13.7,0.1-19.3,1.4c-17.3,4.1-31.3,13-44.8,21.6c-2.7,1.7-5.4,3.4-8.1,5.1
			c-21.7,13.3-45.2,27.2-71.5,37.8c-7,2.8-14.2,4.9-21.9,7.1c-2.8,0.8-5.6,1.6-8.4,2.5l-17.9,5.4H1737.1z"/>
		<path class="st2" d="M2076.6,827.3l-403.7-698.7c-0.1,0.1-0.3,0.2-0.4,0.3l-13.8,12.3c-9.8,7.9-17.2,15-22.5,21.5
			c-3.8,4.7-8,9-12,13.2c-4.4,4.5-8.6,8.8-12.3,13.6c-22.7,29.2-39.9,56.4-53.3,85.2l329.3,570c9-5.1,18.6-9.6,29.6-12.2
			c5.7-1.3,16.2-1.4,19.3-1.4c3.2,0,9.1,0.1,13.3,0.7h37.4C2017.1,831.7,2047.9,831.1,2076.6,827.3z"/>
		<polygon class="st3" points="1898.5,519.2 1898.6,519.3 1898.6,519.2 		"/>
		<path class="st4" d="M2076.5,827.3l-178-308l-146.4,253.3c1.7,0.8,3.4,1.6,5.1,2.4c3.8,1.7,7.7,3.7,11.4,5.6
			c6.6,3.4,13.5,6.9,20.4,9l4.7,1.4l-1.2,9.7c-1.1,8.8-2.1,17.2-4.6,25.2c-5.1,17-11.6,30.4-19.5,42.9c-8.6,16-18.8,30-29.2,40.3
			l-2.2,2.9h7.7l17.9-5.4c2.8-0.9,5.6-1.7,8.4-2.5c7.6-2.2,14.9-4.4,21.9-7.1c26.4-10.5,49.8-24.4,71.5-37.8
			c2.7-1.7,5.4-3.4,8.1-5.1c13.5-8.6,27.5-17.5,44.8-21.6c5.7-1.3,16.2-1.4,19.3-1.4c3.2,0,9.1,0.1,13.3,0.7h37.4
			C2017.1,831.7,2047.9,831.1,2076.5,827.3z"/>
		<path class="st5" d="M1822.4,43.4c-43.1,15.9-81.6,35.7-115,59.2c-11.9,8.4-23.6,17.4-34.5,26l403.6,698.7
			c8.9-1.2,17.7-2.6,26.1-4.5l1.5-0.3c24.6-5.4,47.8-10.5,70-17.5c25.1-7.9,49-17.4,71.9-28.2L1822.4,43.4z"/>
		<path class="st6" d="M2028,5.7c-1.6,0-3.1,0-4.6,0l-13.1,0.4l-15.5,1.1L1614,666.4c22.7,26,49.6,49.9,80.9,72
			c20.9,14.8,39.1,25.6,56.6,34l432.2-748C2135.6,11.7,2084.3,5.7,2028,5.7z"/>
		<path class="st7" d="M2468.4,238.5c-2-3.5-3.9-7-5.7-10.4c-2.3-4.4-4.5-8.6-7-12.6c-7-11.2-15.1-22.8-25.4-36.6
			c-6.8-9-14.3-17.8-22.3-26.4l-129.1,223.4l149.1,256.3c12.4-16.1,23.9-33,34.2-50.7c15.6-26.6,28.2-58.6,37.5-95.1
			C2522.2,397.9,2501,294.6,2468.4,238.5z"/>
		<path class="st8" d="M2023.3,0c131.9-0.8,228.5,32.3,308.8,83c38.7,24.5,75.5,56.4,102.7,92.4c9,11.9,17.7,24.1,25.7,37
			c4.7,7.5,8.2,15.4,12.8,23.2c34.6,59.5,54.1,165.1,31.9,252.2c-9.1,35.7-21.5,68.2-38.1,96.6c-62.2,106.1-163.7,185.6-291.2,226
			c-22.9,7.3-46.9,12.5-72,18c-35,7.7-74.4,9-116.5,9c-12.6,0-25.1,0-37.7,0c-7.1-1.1-24.7-0.9-30.9,0.6
			c-19.9,4.7-35.7,16.4-51.3,26c-22.8,14-46.2,27.7-72.4,38.2c-9.8,3.9-20,6.5-30.7,9.8c-6.2,1.9-12.5,3.7-18.7,5.6
			c-6.6,0-13.2,0-19.7,0c0.1-0.2,0.1-0.4,0.2-0.6c6.6-8.6,13.2-17.2,19.7-25.8c15.5-20.6,28.3-38.8,36.7-67c2.7-9.1,3.6-18.8,5-29.2
			c-11.5-3.4-22-10.1-32.5-14.8c-22.8-10.1-44-23.5-63.4-37.2c-63.3-44.6-114.5-99.9-146.6-175.8c-6.4-15.1-10.6-30.8-15.6-47.6
			c-4.7-16-6.3-33.6-9.4-51.8c-0.4-6.1-0.8-12.3-1.2-18.4c-1.3-8.6-1.6-26.6-0.2-35.4c1.5-9.6,0.4-18.8,2-27.8
			c3.8-21.6,6.4-41.9,12.4-61c17.4-56.1,42.5-98.2,74.4-139.2c7.4-9.5,16.8-17.5,24.3-26.8c6.6-8.2,15.2-15.8,23.3-22.4
			c4.6-4.1,9.2-8.1,13.8-12.2c11.6-9,23.2-18.1,35.3-26.6c51-36,112.2-62.4,181.1-80c20.5-5.2,41.8-8.1,63.8-12.2
			c8.6-1,17.2-2,25.7-3c11.7-0.8,23.4-1.6,35.1-2.4C2014.4,0.3,2018.8,0.1,2023.3,0L2023.3,0z M2026.3,36
			c-12.7,0.6-25.4,1.2-38.1,1.8c-6.9,0.7-13.8,1.3-20.7,2c-19.6,3.5-39,4.8-57.2,9.4c-19.4,4.8-38.1,9.4-56.2,15.2
			c-55.4,17.6-103.5,44.2-145.6,75.2c-9.9,7.3-18.9,15.2-28.3,22.8c-4.1,3.9-8.2,7.9-12.4,11.8c-4.1,3.9-8.1,7.9-12.2,11.8
			c-9.1,11.3-19.7,21.5-28.5,33.2c-21.1,28-38.4,58.7-52.3,94.2c-8.3,21.2-12.6,44.2-17.4,69.2c-2.1,10.7-1,21.7-2.8,33.4
			c-1.8,11.6-0.8,32.4,1,43.2c1.7,10.1,1.5,19.6,3.6,29c4.6,21.4,9.7,41.1,17,59.4c29.2,73.5,78.3,125.4,138.4,167.8
			c13.9,9.8,29.3,17.8,44.3,26.6c20.3,11.9,43.9,20.3,66.4,29.6c-0.5,6.1-0.9,12.1-1.4,18.2c-0.3,4.7-0.7,9.5-1,14.2
			c-1.8,10.6-3,20.7-5.8,30.2c-2.2,7.4-5.2,14.4-7.4,21.4c0.1,0,0.1,0,0.2,0c34.3-16.1,62.8-44.3,103.3-53.2
			c7.8-1.7,17.6-1.2,26.9-1.2c16,0.1,32,0.1,48.1,0.2c6.4,0,12.8,0,19.1,0c3.1-0.1,6.2-0.1,9.4-0.2c11.8-0.7,23.5-1.3,35.3-2
			c7-0.8,14.1-1.6,21.1-2.4c22.4-4.2,44.2-6.7,64.6-12.8c21.5-6.4,42.2-12.5,62-20.4c44.9-17.9,85.4-40.9,121.3-68
			c10.6-8,20.3-16.9,30.5-25.2c3.5-3.3,6.9-6.7,10.4-10c5.2-4.2,10.4-9.4,14.6-14.6c7.3-9,16.1-16.9,23.3-26.2
			c25.2-32.5,44.6-65.8,60.8-107.8c7.7-19.8,11.2-41.7,15.6-65c0.6-6.8,1.2-13.6,1.8-20.4c1.8-11.7,1.7-33.1-0.2-44.6
			c-1.5-9.2-1.1-17.8-2.8-26.4c-3.4-16.9-6.2-33-11-48.2c-5.1-16.1-11.6-31-18-45.4c-11-24.9-26.1-46.7-41.9-67
			c-5.3-6.8-11.8-12.7-17.2-19.4c-8.4-10.5-19.2-20.2-29.7-28.6c-13.7-10.9-27.1-22.6-42.3-32.2C2239.6,66.8,2149.9,36.1,2026.3,36
			L2026.3,36z M1854.7,216.6c70.9,0,141.8,0,212.6,0c20.2,0,40.4,0,60.6,0c5.2,0,21.5-1.2,24.9,0.4c29.7,40.9,59.3,81.7,89,122.6
			c7.1,9.7,14.2,19.3,21.3,29c1.2,1.6,6.5,8.5,5.8,9.4c-88.4,108.5-176.9,216.9-265.3,325.4c-0.3-0.3-0.7-0.5-1-0.8
			c-88.4-108.4-176.7-216.8-265.1-325.2C1776.7,323.8,1815.7,270.2,1854.7,216.6L1854.7,216.6z M1871.7,250.2
			c-26.6,36.6-53.2,73.2-79.8,109.8c0,0.1,0,0.1,0,0.2c36.3,0,72.6,0,108.9,0c14.7-36.6,29.4-73.2,44.1-109.8c0-0.1,0-0.1,0-0.2
			C1920.5,250.2,1896.1,250.2,1871.7,250.2L1871.7,250.2z M1960.1,250.2c-14.6,36.7-29.3,73.3-43.9,110c58.3,0,116.6,0,174.9,0
			c0-0.1,0-0.1,0-0.2c-14.6-36.6-29.3-73.2-43.9-109.8C2018.2,250.2,1989.1,250.2,1960.1,250.2L1960.1,250.2z M2062.4,250.2
			c14.6,36.7,29.3,73.3,43.9,110c36.4,0,72.7,0,109.1,0c0-0.1,0-0.1,0-0.2c-0.2-0.2-0.4-0.4-0.6-0.6
			c-26.4-36.4-52.8-72.8-79.2-109.2C2111.2,250.2,2086.8,250.2,2062.4,250.2L2062.4,250.2z M1794.3,393.6
			c60.4,74.1,120.7,148.1,181.1,222.2c-25.1-74.1-50.3-148.1-75.4-222.2C1864.8,393.6,1829.5,393.6,1794.3,393.6L1794.3,393.6z
			 M1915,393.6c21.7,64.1,43.5,128.1,65.2,192.2c5.4,15.9,10.8,31.7,16.2,47.6c2.3,5.8,3,13.3,7.4,17c0-0.1,0-0.3,0-0.4
			c4.4-3.6,5.2-11.7,7.4-17.4c5.3-15.7,10.6-31.3,16-47c21.7-64,43.5-128,65.2-192C2033.2,393.6,1974.1,393.6,1915,393.6L1915,393.6
			z M2107.3,393.6c-25.1,74-50.3,148-75.4,222c60.4-73.9,120.7-147.9,181.1-221.8c0-0.1,0-0.1,0-0.2
			C2177.7,393.6,2142.5,393.6,2107.3,393.6L2107.3,393.6z"/>
	</g>
	<g>
		<g>
			<path class="st0" d="M19.5,1429.6h15v-41.4H69v-10.6H34.5v-28.1h42.9v-10.9H19.5V1429.6z M291.4,1429.6h14.8v-91.1h-14.8V1429.6z
				 M584.3,1406.6h-0.8l-12.4-19.8c-5.1-8.1-10.2-16.2-15.2-24.2c-5.1-8-10.2-16-15.5-24h-15v90.9h14.4v-69.4c0.2,0,0.3,0,0.3-0.1
				c0,0,0.1-0.1,0.2-0.1l10.7,17.4c5.5,8.7,11,17.4,16.5,26.2c5.5,8.8,10.9,17.4,16.5,26h14.8v-90.9h-14.4V1406.6z M838.1,1338.5
				c-4.7,14.2-9.5,28.8-14.6,43.9c-5.1,15.1-10.3,30.8-15.7,47.1h15l7-22.4h34.4c1.2,3.8,2.4,7.6,3.5,11.3c1.1,3.7,2.3,7.4,3.5,11.1
				h15.4l-29.7-91.1H838.1z M833.2,1396.3c0.1-0.3,0.3-1,0.7-2.1c0.4-1.1,0.8-2.5,1.3-4c0.5-1.5,1-3.2,1.5-4.9
				c0.5-1.7,1-3.4,1.4-4.9c0.4-1.5,0.8-2.9,1.2-4c0.4-1.1,0.6-1.8,0.7-2.1l7-24.2h0.5c1.2,4.1,2.4,8.1,3.6,12.2
				c1.2,4.1,2.4,8.3,3.6,12.5l6.3,21.4H833.2z M1154.7,1406.6h-0.8l-12.4-19.8c-5.1-8.1-10.2-16.2-15.2-24.2c-5.1-8-10.2-16-15.5-24
				h-15v90.9h14.4v-69.4c0.2,0,0.3,0,0.3-0.1c0,0,0.1-0.1,0.2-0.1l10.7,17.4c5.5,8.7,11,17.4,16.5,26.2c5.4,8.8,10.9,17.4,16.5,26
				h14.8v-90.9h-14.4V1406.6z M1443.8,1417.1c-2,0.4-4,0.7-5.9,0.9c-1.9,0.3-3.8,0.5-5.5,0.6c-1.7,0.1-3.1,0.2-4.3,0.2
				c-5.5,0-10-0.8-13.6-2.5c-3.6-1.6-6.5-4-8.6-7c-2.1-3-3.6-6.6-4.5-10.9c-0.9-4.2-1.3-9-1.3-14.2c0-11.4,2.3-20.2,6.9-26.3
				c4.6-6.2,11.5-9.2,20.7-9.2c2.7,0,5.7,0.2,9,0.6c3.3,0.4,6.6,1.2,10.2,2.3l2.6-11c-3.1-1.1-6.6-1.9-10.5-2.7
				c-3.9-0.7-8.2-1.1-13-1.1c-8.3,0-15.1,1.5-20.4,4.6c-5.4,3.1-9.6,6.9-12.7,11.6c-3.1,4.7-5.3,9.8-6.5,15.5
				c-1.2,5.6-1.8,11-1.8,16c0,6.7,0.7,12.9,2,18.5c1.4,5.6,3.6,10.5,6.8,14.6s7.3,7.3,12.5,9.6c5.2,2.3,11.6,3.5,19.4,3.5
				c2.2,0,4.5-0.1,6.9-0.3c2.4-0.2,4.8-0.5,7.2-0.9c2.4-0.4,4.7-0.9,6.9-1.4c2.2-0.5,4.2-1.2,5.9-1.9l-2.6-10.5
				C1447.7,1416.3,1445.8,1416.8,1443.8,1417.1z M1680.1,1418.7v-31.9h36.5v-10.4h-36.5v-27.1h43.4v-10.9h-58.4v91.1h60.4v-10.9
				H1680.1z"/>
		</g>
	</g>
</g>
</svg>
