<svg width="68" height="57" viewBox="0 0 68 57" fill="none" xmlns="http://www.w3.org/2000/svg">
<path fill-rule="evenodd" clip-rule="evenodd" d="M14.9677 61.1072L15.8571 59.948C16.9419 58.5206 17.8111 57.2743 18.3905 55.3377C18.5522 54.7949 18.6263 54.2387 18.7005 53.649L18.7813 52.999L18.4646 52.9052C17.9997 52.7712 17.5348 52.5299 17.0901 52.3021C16.8408 52.1748 16.5848 52.0408 16.322 51.9269C15.0149 51.3506 13.6808 50.5732 12.1109 49.4676C7.50225 46.231 4.31528 42.4315 2.36806 37.848C2.01769 37.0238 1.76166 36.1594 1.49215 35.248C1.43824 35.0671 1.38434 34.8862 1.33044 34.6985C1.11483 33.9681 1.00029 33.1841 0.87901 32.3532C0.825108 32.0047 0.777941 31.6496 0.717301 31.2944L0.636451 30.0614V30.0413C0.555598 29.5187 0.53538 28.3527 0.622971 27.7898C0.676873 27.448 0.683611 27.1264 0.690349 26.8115C0.697086 26.5032 0.703826 26.2151 0.75099 25.9336C0.81163 25.612 0.858797 25.2903 0.912699 24.9754C1.09462 23.8898 1.2698 22.8579 1.57301 21.8929C2.6241 18.5357 4.10641 15.7816 6.52528 12.6857C6.77458 12.3708 7.05756 12.0826 7.35402 11.7744C7.63027 11.4929 7.90652 11.2048 8.16255 10.8898C8.51966 10.4476 9.01152 9.9785 9.67856 9.44912L10.6084 8.6249C11.3563 8.04861 12.1446 7.43212 12.9599 6.86253C16.2681 4.53728 20.331 2.75481 25.034 1.56203C25.9705 1.32749 26.9273 1.15997 27.938 0.992444C28.3894 0.918733 28.8408 0.838321 29.299 0.751208L31.0171 0.550177L33.3619 0.389353L34.2445 0.362549C34.3389 0.362549 34.4467 0.362549 34.5545 0.362549C42.4175 0.362549 48.8655 2.11151 54.8352 5.86408C57.5775 7.58624 59.9357 9.69706 61.6538 11.962C62.3546 12.88 62.9003 13.6641 63.3652 14.4146C63.5337 14.6893 63.6819 14.9641 63.8369 15.2589C63.9582 15.4867 64.0794 15.7213 64.2209 15.9558C66.4175 19.7218 67.8526 26.6372 66.3299 32.5676C65.7032 35.0202 64.8543 37.1645 63.8032 38.9403C59.6055 46.0568 52.8947 51.2366 44.3984 53.917C42.8958 54.3928 41.3327 54.7279 39.6819 55.0897L39.5808 55.1098C37.1889 55.6325 34.4399 55.7062 31.8257 55.7062H29.3057C29.0227 55.666 28.6252 55.6593 28.4096 55.6593C28.2007 55.6593 27.4865 55.666 27.1092 55.7531C25.9436 56.0279 25.0003 56.6243 24.0907 57.2005C23.9088 57.3145 23.7268 57.4284 23.5449 57.5423C22.0828 58.4335 20.4994 59.365 18.7274 60.0753C18.2558 60.2629 17.7706 60.4036 17.2518 60.5511C17.0632 60.6047 16.8745 60.6583 16.6859 60.7186L15.4798 61.0804H14.9677V61.1072Z" fill="url(#paint0_linear)"/>
<path opacity="0.1" fill-rule="evenodd" clip-rule="evenodd" d="M37.8427 55.4386L10.6422 8.61865C10.6355 8.62535 10.622 8.63205 10.6153 8.63875L9.68545 9.46298C9.02514 9.99236 8.52655 10.4681 8.16944 10.9037C7.91341 11.2186 7.63042 11.5068 7.36091 11.7882C7.06444 12.0898 6.78146 12.3779 6.53216 12.6996C5.00269 14.6563 3.84378 16.4789 2.94092 18.4088L25.1285 56.6046C25.7349 56.2628 26.3817 55.9613 27.1229 55.787C27.5069 55.6999 28.2144 55.6932 28.4232 55.6932C28.6389 55.6932 29.0364 55.6999 29.3194 55.7401H31.8393C33.8337 55.7334 35.9089 55.6932 37.8427 55.4386Z" fill="white"/>
<path opacity="0.3" d="M25.8423 34.7925L25.8502 34.8004V34.7925H25.8423Z" fill="black"/>
<path opacity="0.3" d="M37.8352 55.4384L25.842 34.7993L15.9779 51.773C16.0924 51.8266 16.2069 51.8802 16.3215 51.9338C16.5775 52.0477 16.8403 52.1817 17.0896 52.3091C17.5343 52.5369 17.9992 52.7714 18.4641 52.9122L18.7808 53.006L18.6999 53.656C18.6258 54.2457 18.5584 54.8085 18.39 55.3446C18.0464 56.4838 17.6084 57.3817 17.0761 58.2194C16.4967 59.2915 15.8094 60.2297 15.1087 60.9199L14.9604 61.1142H15.4793L16.6853 60.7523C16.874 60.692 17.0626 60.6384 17.2513 60.5848C17.7634 60.4374 18.2552 60.29 18.7269 60.109C20.5057 59.4054 22.0823 58.474 23.5444 57.5761C23.7263 57.4621 23.9082 57.3482 24.0902 57.2343C24.9998 56.658 25.9431 56.0616 27.1087 55.7869C27.4927 55.6998 28.2002 55.6931 28.4091 55.6931C28.6247 55.6931 29.0222 55.6998 29.3052 55.74H31.8251C33.833 55.7333 35.9082 55.6931 37.8352 55.4384Z" fill="#000100"/>
<path opacity="0.2" fill-rule="evenodd" clip-rule="evenodd" d="M20.7155 2.90869C17.8116 3.97415 15.2175 5.30095 12.9671 6.87569C12.1653 7.43858 11.377 8.04167 10.6426 8.61796L37.8362 55.4379C38.4359 55.3575 39.0288 55.2637 39.5948 55.1364L39.6959 55.1163C41.3534 54.7544 42.9165 54.4127 44.4123 53.9436C46.1035 53.4142 47.7138 52.7776 49.2568 52.0539L20.7155 2.90869Z" fill="white"/>
<path opacity="0.15" fill-rule="evenodd" clip-rule="evenodd" d="M34.5678 0.382812C34.46 0.382812 34.3589 0.382812 34.2579 0.382812L33.3752 0.409617L32.3309 0.483328L6.67334 44.6565C8.20282 46.3987 10.0153 48.0003 12.1242 49.4812C13.5324 50.4729 14.7587 51.1966 15.9378 51.7595L45.0585 1.6359C41.8177 0.784874 38.3612 0.382812 34.5678 0.382812Z" fill="#000100"/>
<path opacity="0.22" fill-rule="evenodd" clip-rule="evenodd" d="M64.2408 15.9828C64.106 15.7483 63.978 15.5138 63.8567 15.2859C63.7018 14.9911 63.5535 14.7097 63.3851 14.4416C62.9134 13.6911 62.3677 12.9138 61.6737 11.989C61.2155 11.3859 60.7102 10.7963 60.1712 10.22L51.4727 25.19L61.5187 42.3647C62.3542 41.2859 63.129 40.1534 63.823 38.9673C64.8741 37.1849 65.7231 35.0405 66.3497 32.5947C67.8657 26.6643 66.4373 19.7421 64.2408 15.9828Z" fill="#000100"/>
<path fill-rule="evenodd" clip-rule="evenodd" d="M34.2509 0.000950618C43.138 -0.0526575 49.6468 2.16538 55.0572 5.56279C57.6647 7.20454 60.1442 9.34216 61.9769 11.7545C62.5833 12.552 63.1695 13.3695 63.7085 14.2339C64.0252 14.7365 64.261 15.2659 64.571 15.7885C66.9022 19.7756 68.2161 26.8519 66.7203 32.6885C66.1072 35.0808 65.2717 37.2586 64.1532 39.1617C59.9623 46.2715 53.1234 51.5988 44.5328 54.306C42.9898 54.7951 41.3727 55.1436 39.6815 55.5122C37.3233 56.0281 34.6686 56.1152 31.832 56.1152C30.9831 56.1152 30.1408 56.1152 29.2919 56.1152C28.8135 56.0415 27.6277 56.0549 27.2099 56.1554C25.8691 56.4704 24.8045 57.2544 23.7534 57.8977C22.2172 58.8359 20.6406 59.7539 18.8753 60.4575C18.215 60.7188 17.5277 60.8931 16.8068 61.1142C16.389 61.2415 15.9645 61.3621 15.5468 61.4895C15.1021 61.4895 14.6574 61.4895 14.2194 61.4895C14.2262 61.4761 14.2262 61.4627 14.2329 61.4492C14.6776 60.873 15.1223 60.2967 15.5603 59.7204C16.6046 58.34 17.4671 57.1204 18.033 55.2307C18.215 54.6209 18.2756 53.9709 18.3699 53.274C17.5951 53.0462 16.8876 52.5972 16.1801 52.2823C14.6439 51.6055 13.2155 50.7075 11.9084 49.7895C7.64336 46.8008 4.19361 43.0952 2.03078 38.0091C1.59956 36.9972 1.31658 35.9452 0.979686 34.8194C0.66301 33.7473 0.555204 32.5679 0.346333 31.3483C0.319381 30.9395 0.292434 30.5241 0.265482 30.1153C0.177891 29.539 0.157673 28.3328 0.252002 27.7431C0.353069 27.0999 0.278953 26.4834 0.386758 25.8803C0.642794 24.4328 0.817978 23.0725 1.22225 21.7927C2.39462 18.0334 4.08581 15.2123 6.23516 12.4648C6.73376 11.8282 7.36712 11.2922 7.87245 10.669C8.31714 10.1195 8.89659 9.61021 9.44235 9.16794C9.75229 8.8932 10.0622 8.62516 10.3722 8.35041C11.1538 7.74732 11.9353 7.13753 12.7506 6.56794C16.1869 4.15558 20.3104 2.38651 24.9527 1.20713C26.334 0.85868 27.7691 0.664351 29.2515 0.389609C29.8309 0.322599 30.4104 0.255589 30.9831 0.188579C31.7714 0.134971 32.5597 0.0813628 33.348 0.0277547C33.6512 0.0210537 33.9477 0.00765163 34.2509 0.000950618ZM34.453 2.41332C33.5973 2.45352 32.7416 2.49373 31.8859 2.53393C31.421 2.58084 30.9561 2.62105 30.4912 2.66795C29.1706 2.90249 27.8635 2.9896 26.6372 3.29785C25.3301 3.6195 24.0701 3.92774 22.8506 4.3164C19.1178 5.49578 15.8769 7.27825 13.0403 9.35557C12.3733 9.84474 11.7669 10.3741 11.1335 10.8834C10.8573 11.1447 10.581 11.4128 10.2981 11.6741C10.0218 11.9355 9.75229 12.2035 9.47604 12.4648C8.8629 13.2221 8.14869 13.9056 7.55577 14.6896C6.13409 16.5659 4.96846 18.6231 4.03191 21.0019C3.47267 22.4225 3.18295 23.9638 2.85953 25.639C2.71804 26.356 2.79215 27.0932 2.67087 27.8772C2.54959 28.6545 2.61697 30.0483 2.73825 30.772C2.85279 31.4488 2.83931 32.0854 2.98081 32.7153C3.29075 34.1493 3.63437 35.4694 4.12623 36.6957C6.09367 41.6209 9.40192 45.0988 13.4513 47.94C14.3879 48.5967 15.4255 49.1328 16.4362 49.7225C17.804 50.5199 19.3941 51.0828 20.9101 51.706C20.8764 52.1147 20.8494 52.5168 20.8157 52.9256C20.7955 53.2405 20.7686 53.5622 20.7484 53.8771C20.6271 54.5874 20.5462 55.2642 20.3576 55.9008C20.2093 56.3967 20.0072 56.8658 19.859 57.3348C19.8657 57.3348 19.8657 57.3348 19.8725 57.3348C22.1835 56.256 24.1038 54.3663 26.8326 53.7699C27.3581 53.656 28.0184 53.6895 28.6451 53.6895C29.7231 53.6962 30.8011 53.6962 31.8859 53.7029C32.3171 53.7029 32.7484 53.7029 33.1729 53.7029C33.3817 53.6962 33.5906 53.6962 33.8062 53.6895C34.6013 53.6426 35.3896 53.6024 36.1846 53.5555C36.6563 53.5018 37.1347 53.4482 37.6063 53.3946C39.1156 53.1132 40.5844 52.9457 41.9589 52.5369C43.4075 52.108 44.8023 51.6993 46.1364 51.1699C49.1616 49.9704 51.8904 48.4292 54.3093 46.6132C55.0235 46.0771 55.6771 45.4807 56.3643 44.9245C56.6001 44.7034 56.8292 44.4756 57.065 44.2544C57.4154 43.973 57.7658 43.6245 58.0488 43.2761C58.5406 42.673 59.1336 42.1436 59.6187 41.5204C61.3166 39.3426 62.6237 37.1112 63.7153 34.2967C64.2341 32.9699 64.4699 31.5024 64.7663 29.9411C64.8068 29.4854 64.8472 29.0297 64.8876 28.5741C65.0089 27.7901 65.0022 26.356 64.8742 25.5854C64.7731 24.9689 64.8 24.3926 64.6855 23.8164C64.4564 22.6839 64.2678 21.605 63.9443 20.5865C63.6007 19.5076 63.1628 18.5092 62.7315 17.5442C61.9904 15.8757 60.973 14.4148 59.9084 13.0545C59.5513 12.5989 59.1133 12.2035 58.7495 11.7545C58.1835 11.0509 57.4558 10.4009 56.7484 9.83804C55.8253 9.10763 54.9224 8.32361 53.8983 7.68031C48.8247 4.47723 42.7809 2.42002 34.453 2.41332ZM22.891 14.5153C27.6681 14.5153 32.4452 14.5153 37.2155 14.5153C38.5766 14.5153 39.9376 14.5153 41.2986 14.5153C41.649 14.5153 42.7473 14.4349 42.9763 14.5422C44.9775 17.2829 46.9718 20.0169 48.973 22.7576C49.4514 23.4076 49.9297 24.0509 50.4081 24.7009C50.489 24.8081 50.8461 25.2705 50.7989 25.3308C44.8427 32.6014 38.8798 39.8653 32.9235 47.1359C32.9033 47.1158 32.8764 47.1024 32.8562 47.0823C26.9 39.8184 20.9505 32.5545 14.9943 25.2906C17.6355 21.6988 20.2632 18.1071 22.891 14.5153ZM24.0364 16.7669C22.2442 19.2195 20.4519 21.672 18.6597 24.1246C18.6597 24.1313 18.6597 24.1313 18.6597 24.138C21.1055 24.138 23.5513 24.138 25.9971 24.138C26.9876 21.6854 27.978 19.2329 28.9685 16.7803C28.9685 16.7736 28.9685 16.7736 28.9685 16.7669C27.3244 16.7669 25.6804 16.7669 24.0364 16.7669ZM29.9926 16.7669C29.0089 19.2262 28.0184 21.6787 27.0347 24.138C30.9629 24.138 34.891 24.138 38.8191 24.138C38.8191 24.1313 38.8191 24.1313 38.8191 24.1246C37.8354 21.672 36.8449 19.2195 35.8612 16.7669C33.9073 16.7669 31.9466 16.7669 29.9926 16.7669ZM36.8854 16.7669C37.8691 19.2262 38.8595 21.6787 39.8433 24.138C42.2958 24.138 44.7416 24.138 47.1942 24.138C47.1942 24.1313 47.1942 24.1313 47.1942 24.1246C47.1807 24.1112 47.1672 24.0978 47.1538 24.0844C45.375 21.6452 43.5962 19.2061 41.8174 16.7669C40.1734 16.7669 38.5294 16.7669 36.8854 16.7669ZM18.8214 26.3761C22.891 31.3416 26.9539 36.3003 31.0235 41.2658C29.3323 36.3003 27.6344 31.3416 25.9432 26.3761C23.5715 26.3761 21.1931 26.3761 18.8214 26.3761ZM26.9539 26.3761C28.416 30.6715 29.8848 34.9601 31.3469 39.2555C31.7107 40.3209 32.0746 41.3797 32.4384 42.4452C32.5934 42.8338 32.6406 43.3364 32.937 43.5843C32.937 43.5776 32.937 43.5642 32.937 43.5575C33.2335 43.3163 33.2874 42.7735 33.4356 42.3916C33.7927 41.3395 34.1498 40.2941 34.5137 39.2421C35.9758 34.9534 37.4446 30.6648 38.9067 26.3761C34.9179 26.3761 30.9359 26.3761 26.9539 26.3761ZM39.9106 26.3761C38.2195 31.3349 36.5215 36.2936 34.8303 41.2524C38.9 36.3003 42.9629 31.3416 47.0325 26.3895C47.0325 26.3828 47.0325 26.3828 47.0325 26.3761C44.654 26.3761 42.2823 26.3761 39.9106 26.3761Z" fill="white"/>
<defs>
<linearGradient id="paint0_linear" x1="0.567602" y1="30.7439" x2="66.9793" y2="30.7439" gradientUnits="userSpaceOnUse">
<stop offset="0.025641" stop-color="#DB3D6B"/>
<stop offset="0.154" stop-color="#CC3D70"/>
<stop offset="0.4012" stop-color="#A43E7E"/>
<stop offset="0.4897" stop-color="#943E83"/>
<stop offset="0.5019" stop-color="#923E84"/>
<stop offset="0.8077" stop-color="#563E90"/>
<stop offset="0.9538" stop-color="#3F3E95"/>
</linearGradient>
</defs>
</svg>
