<svg width="14" height="14" viewBox="0 0 14 14" fill="none" xmlns="http://www.w3.org/2000/svg">
<path d="M6.99923 5.00049C5.89659 5.00049 4.99951 5.89756 4.99951 7.00021C4.99951 8.10285 5.89659 8.99994 6.99923 8.99994C8.10189 8.99994 8.99897 8.10287 8.99897 7.00023C8.99897 5.89758 8.10189 5.00049 6.99923 5.00049Z" fill="#23d3f7"/>
<path d="M10.1611 0H3.83691C1.7207 0 -0.000976562 1.72167 -0.000976562 3.83791V10.1621C-0.000976562 12.2784 1.7207 14 3.83691 14H10.1611C12.2774 14 13.999 12.2783 13.999 10.1621V3.83791C13.999 1.72167 12.2774 0 10.1611 0ZM6.99902 10.8399C4.88166 10.8399 3.15911 9.11736 3.15911 7C3.15911 4.88264 4.88169 3.16012 6.99902 3.16012C9.11636 3.16012 10.839 4.88266 10.839 7C10.839 9.11734 9.11636 10.8399 6.99902 10.8399ZM11.0686 4.09708C10.4253 4.09708 9.90197 3.57372 9.90197 2.93043C9.90197 2.28714 10.4253 1.76375 11.0686 1.76375C11.7119 1.76375 12.2353 2.28711 12.2353 2.9304C12.2353 3.57369 11.7119 4.09708 11.0686 4.09708Z" fill="#23d3f7"/>
</svg>
