<?xml version="1.0" encoding="utf-8"?>
<!-- Generator: Adobe Illustrator 21.1.0, SVG Export Plug-In . SVG Version: 6.00 Build 0)  -->
<svg version="1.1" id="Layer_1" xmlns="http://www.w3.org/2000/svg" xmlns:xlink="http://www.w3.org/1999/xlink" x="0px" y="0px"
	 viewBox="0 0 356.2 253.2" style="enable-background:new 0 0 356.2 253.2;" xml:space="preserve">
<style type="text/css">
	.st0{opacity:0.98;fill:#0071D0;enable-background:new    ;}
	.st1{opacity:0.91;fill:#D7D1C9;enable-background:new    ;}
</style>
<g id="_x23_0071d0f9">
	<path class="st0" d="M0.2,0c3,1.8,5.6,4.1,8.3,6.3C28.3,22.1,48,38.2,68,53.8l-0.7,1l1-0.4c49.9,40,99.8,80.1,149.7,120.1
		c1.9,1.7,4.4,3,5.7,5.3c-0.2,24.5,0.3,48.9-0.5,73.4h-0.3c0.1-1.6-1.8-2.5-2.8-3.5C146.7,190.3,73.5,130.8,0,71.6
		C0.3,47.7-0.1,23.9,0.2,0z"/>
	<path class="st0" d="M0.1,145.5c2,0.9,3.7,2.3,5.3,3.8c20.4,16.9,40.9,33.8,61.3,50.7c0,17.7-0.1,35.4-0.2,53.1H0.1
		C0,217.3,0,181.4,0.1,145.5z"/>
</g>
<g id="_x23_d7d1c9e9">
	<path class="st1" d="M68,53.8c0-17.9,0-35.8,0-53.7c47.6,38.6,95.4,77,143,115.5c1.3,1,3,3.3,4.8,1.9
		c45.9-38.4,91.9-76.7,137.9-115c0.8-0.6,1.6-1.2,2.5-1.8c0,83.9,0.1,167.9-0.1,251.8c-21.7-0.2-43.4-0.1-65.1,0
		c-0.4-42.4,0.1-84.8-0.3-127.2c-22.4,18.2-44.7,36.4-67.1,54.6c-1.4-2.3-3.8-3.6-5.7-5.3c-49.9-40.1-99.8-80.1-149.7-120.1l-1,0.4
		L68,53.8z"/>
</g>
</svg>
