<?xml version="1.0" encoding="UTF-8"?>
<!-- Generator: Adobe Illustrator 21.1.0, SVG Export Plug-In . SVG Version: 6.00 Build 0)  -->
<svg version="1.1" id="Layer_1" xmlns="http://www.w3.org/2000/svg" xmlns:xlink="http://www.w3.org/1999/xlink" x="0px" y="0px" viewBox="0 0 24 22" style="enable-background:new 0 0 24 22;" xml:space="preserve">
<style type="text/css">
	.st0{fill:#00E7EF;}
	.st1{fill:#41BFFD;}
</style>
<g>
	<path class="st0" d="M8,13h14c1.1,0,2-0.9,2-2V2c0-1.1-0.9-2-2-2L8,0C6.9,0,6,0.9,6,2v9C6,12.1,6.9,13,8,13z"/>
	<polygon class="st0" points="21,10.1 21,17 15,11  "/>
</g>
<g>
	<g>
		<path class="st1" d="M16,18H2c-1.1,0-2-0.9-2-2V7c0-1.1,0.9-2,2-2h14c1.1,0,2,0.9,2,2v9C18,17.1,17.1,18,16,18z"/>
		<polygon class="st1" points="5,15.1 5,22 11,16   "/>
	</g>
</g>
</svg>