<?xml version="1.0" encoding="utf-8"?>
<!-- Generator: Adobe Illustrator 21.1.0, SVG Export Plug-In . SVG Version: 6.00 Build 0)  -->
<svg version="1.1" id="Layer_1" xmlns="http://www.w3.org/2000/svg" xmlns:xlink="http://www.w3.org/1999/xlink" x="0px" y="0px"
	 viewBox="0 0 455.2 678.9" style="enable-background:new 0 0 455.2 678.9;" xml:space="preserve">
<style type="text/css">
	.st0{fill:url(#SVGID_1_);}
	.st1{fill:#464646;}
</style>
<linearGradient id="SVGID_1_" gradientUnits="userSpaceOnUse" x1="0" y1="227.68" x2="455.2" y2="227.68" gradientTransform="matrix(1 0 0 -1 0 455.28)">
	<stop  offset="0" style="stop-color:#B8D432"/>
	<stop  offset="0.3912" style="stop-color:#91C93B"/>
	<stop  offset="1" style="stop-color:#58BA47"/>
</linearGradient>
<path class="st0" d="M227.6,0C101.9,0,0,101.9,0,227.6s101.9,227.6,227.6,227.6s227.6-101.9,227.6-227.6S353.3,0,227.6,0z
	 M227.6,398.6c-94.4,0-171-76.6-171-171s76.6-171,171-171s171,76.6,171,171S322.1,398.6,227.6,398.6z"/>
<g>
	<g>
		<path class="st1" d="M137.7,604.3c-7,0-14.4,2.1-22,6.4v-5h-10.5v71.6h10.7v-58.1l2.7-1.3c1.8-0.9,4.4-1.7,7.7-2.6
			c3.4-0.9,6.6-1.4,9.6-1.4c6.3,0,10.5,1.8,12.4,5.5c1.9,3.7,2.9,10.5,2.9,20.4v37.5h10.5v-37.8c0-13.2-1.6-22.3-4.9-27.5
			C153.5,606.9,147.1,604.3,137.7,604.3z M225,577.7c-14.6,0-24.9,4.2-30.8,12.6c-5.9,8.4-8.9,21.2-8.9,38.5c0,17.3,2.9,29.9,8.8,38
			c5.9,8.1,16.2,12.1,30.9,12.1c14.7,0,25-4,30.8-12c5.8-8,8.7-20.7,8.7-38.1c0-17.4-2.9-30.2-8.8-38.6
			C249.8,581.9,239.6,577.7,225,577.7z M243.4,656.7c-3.2,5.5-9.3,8.3-18.4,8.3c-9.1,0-15.3-2.8-18.5-8.4
			c-3.2-5.6-4.8-14.9-4.8-27.8c0-12.9,1.7-22.4,5-28.3c3.3-5.9,9.4-8.9,18.3-8.9c8.9,0,15,3,18.3,8.9c3.3,5.9,4.9,15.4,4.9,28.4
			C248.1,641.9,246.6,651.2,243.4,656.7z M344.1,630.3c-4-3.8-10.8-7-20.5-9.7c-9.7-2.7-16-5-18.8-6.9c-2.8-1.9-4.3-5-4.3-9.4
			c0-8.5,6-12.7,18.1-12.7c5.5,0,14.9,0.8,28.2,2.3L348,581l-5-0.9c-10-1.7-18.6-2.6-25.9-2.6c-10.1,0-18.1,2.3-23.8,6.8
			c-5.7,4.5-8.6,11.2-8.6,20.1c0,8.9,2.3,15.4,6.8,19.5c4.6,4.1,11.5,7.3,20.8,9.7c9.3,2.3,15.3,4.5,17.9,6.4c2.7,2,4,5,4,9.1
			c0,10.5-5.9,15.7-17.6,15.7c-6.7,0-16.5-0.9-29.3-2.6l-1.6,12.7l5.1,1c9.8,1.9,18.7,2.9,26.7,2.9c10,0,18-2.6,23.8-7.7
			c5.8-5.1,8.7-12.8,8.7-23.1C350.1,640,348.1,634.1,344.1,630.3z"/>
	</g>
</g>
</svg>
