<?xml version="1.0" encoding="utf-8"?>
<!-- Generator: Adobe Illustrator 21.1.0, SVG Export Plug-In . SVG Version: 6.00 Build 0)  -->
<svg version="1.1" id="Layer_1" xmlns="http://www.w3.org/2000/svg" xmlns:xlink="http://www.w3.org/1999/xlink" x="0px" y="0px"
	 viewBox="0 0 219.9 225.8" style="enable-background:new 0 0 219.9 225.8;" xml:space="preserve">
<style type="text/css">
	.st0{fill:#323232;}
	.st1{fill:#64B2E4;}
	.st2{fill:#348DCC;}
	.st3{fill:#FFFFFF;}
	.st4{opacity:0.5;fill:url(#SVGID_1_);enable-background:new    ;}
	.st5{opacity:0.7;fill:url(#SVGID_2_);enable-background:new    ;}
	.st6{fill:url(#SVGID_3_);}
	.st7{opacity:0.5;fill:url(#SVGID_4_);enable-background:new    ;}
	.st8{opacity:0.7;fill:url(#SVGID_5_);enable-background:new    ;}
	.st9{fill:url(#SVGID_6_);}
	.st10{opacity:0.5;fill:#FFFFFF;enable-background:new    ;}
</style>
<g>
	<g>
		<path class="st0" d="M0,184.6h3.9l-0.1-12.9h11.1v-15.9H0V184.6z M3.8,159.4h7.1v8.7H3.8V159.4z M35,165.6h-8.1v-9.7h-3.8v28.8
			h3.8v-15.4H35v15.4h4v-28.8h-4V165.6z M59.2,184.6h4v-28.8H47.3v28.8h3.8v-12.9h8.1V184.6z M51.1,168.2v-8.7h8.1v8.7H51.1z
			 M75.2,166.7l9.1,18h3v-28.8h-4v15.9l-8.2-16l-3.7,0.1v28.8h3.8V166.7z M95.5,159.5h6.2v25.1h3.8v-25.1h5.9v-3.7h-16V159.5z
			 M131.6,184.6h4v-28.8h-15.9v28.8h3.8v-12.9h8.1V184.6z M123.5,168.2v-8.7h8.1v8.7H123.5z M159.7,172.4l-11.8-6.8v-6h8.1v4.5h3.8
			v-8.2h-15.9v13.4l11.9,6.9v4.8h-8.1v-4.5h-3.8v8.2l15.8-0.1V172.4z M168,184.6h3.8v-25.2h8v25.2h4.1v-25.2h7.8v25.2h4v-28.8H168
			V184.6z M204,155.9v28.8h3.8v-12.9h8.1v12.9h4v-28.8H204z M215.9,168.2h-8.1v-8.7h8.1V168.2z M54.8,225.8h2.3l0-7.7h6.7v-9.6h-8.9
			V225.8z M57.1,210.6h4.2v5.2h-4.2V210.6z M77.6,218.1v-9.6h-8.9v17.3h2.3l0-7.7h1l4.2,7.7h3l-4.2-7.7H77.6z M70.9,215.9v-5.2h4.2
			v5.2H70.9z M83.1,225.8h9.6v-17.3h-9.6V225.8z M85.4,210.7h4.9v12.7h-4.9V210.7z M97.6,210.7h3.7v15.1h2.3v-15.1h3.6v-2.2h-9.6
			V210.7z M112.1,225.8h9.6v-17.3h-9.6V225.8z M114.4,210.7h4.9v12.7h-4.9V210.7z M126.6,225.8h9.3v-2.2H129v-12.9h4.9v2.7h2.3v-4.9
			h-9.6V225.8z M141.1,225.8h9.6v-17.3h-9.6V225.8z M143.4,210.7h4.9v12.7h-4.9V210.7z M157.9,208.5l-2.3,0v17.3h9.6v-2.4h-7.3
			V208.5z"/>
	</g>
</g>
<g>
	<path class="st1" d="M152.2,0H70.7C59.3,0,50,9.6,50,21.5V93c0,6.2,7.4,9.2,11.4,4.5l0,0c4.9-5.7,13.5-5.6,18.3,0.1l6.3,7.4
		c2.6,3,7.1,3,9.7,0l6.6-7.5c4.9-5.6,13.3-5.6,18.3,0l6.6,7.6c2.6,3,7.1,3,9.7,0l6.6-7.6c4.9-5.6,13.3-5.6,18.3,0l0.1,0.1
		c4,4.7,11.4,1.7,11.4-4.5V21.5C172.9,9.6,163.7,0,152.2,0z"/>
	<path class="st2" d="M152.2,4.3H70.7C59.3,4.3,50,13.9,50,25.8v71.5c0,6.2,7.4,9.2,11.4,4.5l0,0c4.9-5.7,13.5-5.6,18.3,0.1l6.3,7.4
		c2.6,3,7.1,3,9.7,0l6.6-7.5c4.9-5.6,13.3-5.6,18.3,0l6.6,7.6c2.6,3,7.1,3,9.7,0l6.6-7.6c4.9-5.6,13.3-5.6,18.3,0l0.1,0.1
		c4,4.7,11.4,1.7,11.4-4.5V25.8C172.9,13.9,163.7,4.3,152.2,4.3z"/>
	<circle class="st3" cx="88.1" cy="40.3" r="12.6"/>
	<circle class="st3" cx="135" cy="40.3" r="12.6"/>
	
		<linearGradient id="SVGID_1_" gradientUnits="userSpaceOnUse" x1="124.9478" y1="182.9825" x2="144.8819" y2="182.9825" gradientTransform="matrix(1 0 0 -1 0 223.28)">
		<stop  offset="0" style="stop-color:#21A4DE"/>
		<stop  offset="1" style="stop-color:#138BCC"/>
	</linearGradient>
	<circle class="st4" cx="135" cy="40.3" r="10"/>
	
		<linearGradient id="SVGID_2_" gradientUnits="userSpaceOnUse" x1="126.9974" y1="182.9825" x2="142.8323" y2="182.9825" gradientTransform="matrix(1 0 0 -1 0 223.28)">
		<stop  offset="0" style="stop-color:#21A4DE"/>
		<stop  offset="1" style="stop-color:#138BCC"/>
	</linearGradient>
	<circle class="st5" cx="135" cy="40.3" r="7.9"/>
	
		<linearGradient id="SVGID_3_" gradientUnits="userSpaceOnUse" x1="129.9427" y1="182.9825" x2="139.887" y2="182.9825" gradientTransform="matrix(1 0 0 -1 0 223.28)">
		<stop  offset="0" style="stop-color:#2587C9"/>
		<stop  offset="1" style="stop-color:#0777BC"/>
	</linearGradient>
	<circle class="st6" cx="135" cy="40.3" r="4.9"/>
	
		<linearGradient id="SVGID_4_" gradientUnits="userSpaceOnUse" x1="78.0688" y1="182.9825" x2="98.0028" y2="182.9825" gradientTransform="matrix(1 0 0 -1 0 223.28)">
		<stop  offset="0" style="stop-color:#21A4DE"/>
		<stop  offset="1" style="stop-color:#138BCC"/>
	</linearGradient>
	<circle class="st7" cx="88.1" cy="40.3" r="10"/>
	
		<linearGradient id="SVGID_5_" gradientUnits="userSpaceOnUse" x1="80.1182" y1="182.9825" x2="95.9532" y2="182.9825" gradientTransform="matrix(1 0 0 -1 0 223.28)">
		<stop  offset="0" style="stop-color:#21A4DE"/>
		<stop  offset="1" style="stop-color:#138BCC"/>
	</linearGradient>
	<circle class="st8" cx="88.1" cy="40.3" r="7.9"/>
	
		<linearGradient id="SVGID_6_" gradientUnits="userSpaceOnUse" x1="83.0636" y1="182.9825" x2="93.008" y2="182.9825" gradientTransform="matrix(1 0 0 -1 0 223.28)">
		<stop  offset="0" style="stop-color:#2587C9"/>
		<stop  offset="1" style="stop-color:#0777BC"/>
	</linearGradient>
	<circle class="st9" cx="88.1" cy="40.3" r="4.9"/>
	<ellipse transform="matrix(0.5545 -0.8322 0.8322 0.5545 13.9905 93.4802)" class="st10" cx="94.3" cy="33.7" rx="2.9" ry="2.9"/>
	
		<ellipse transform="matrix(0.5545 -0.8322 0.8322 0.5545 34.9011 132.4946)" class="st10" cx="141.2" cy="33.7" rx="2.9" ry="2.9"/>
</g>
</svg>
