<svg width="19" height="21" viewBox="0 0 19 21" fill="none" xmlns="http://www.w3.org/2000/svg">
<path d="M18.2229 11.1836C18.6207 10.9654 18.6207 10.606 18.2229 10.3878L1.17822 0.915736C0.780343 0.697544 0.459473 0.890066 0.459473 1.33928V20.2321C0.459473 20.6814 0.780343 20.8739 1.17822 20.6557L18.2229 11.1836Z" fill="#41BFFD"/>
<mask id="mask0" mask-type="alpha" maskUnits="userSpaceOnUse" x="0" y="0" width="19" height="21">
<path d="M18.2229 11.1836C18.6207 10.9654 18.6207 10.606 18.2229 10.3878L1.17822 0.915736C0.780343 0.697544 0.459473 0.890066 0.459473 1.33928V20.2321C0.459473 20.6814 0.780343 20.8739 1.17822 20.6557L18.2229 11.1836Z" fill="#41BFFD"/>
</mask>
<g mask="url(#mask0)">
<path d="M15.6021 6.84375C16.0173 6.61607 16.0173 6.24107 15.6021 6.01339L-2.18359 -3.87054C-2.59877 -4.09822 -2.93359 -3.89732 -2.93359 -3.42857V16.2857C-2.93359 16.7545 -2.59877 16.9554 -2.18359 16.7277L15.6021 6.84375Z" fill="#0CE0F2"/>
</g>
</svg>
