<svg viewBox="0 0 200 200" version="1.1" xmlns="http://www.w3.org/2000/svg">
<linearGradient id="svgLinkGradient" x1="0%" y1="21%" x2="100%" y2="79%">
<stop offset="0%" stop-color="#00eded"></stop>
<stop offset="100%" stop-color="#37c3fd"></stop>
</linearGradient>
<path fill="url(#svgLinkGradient)" d=" M 0.00 0.00 L 76.00 0.00 C 76.00 10.00 76.00 20.00 76.00 30.00 C 60.67 30.00 45.33 30.00 30.00 30.00 C 30.00 76.67 30.00 123.33 30.00 170.00 C 76.67 170.00 123.33 170.00 170.00 170.00 C 170.01 154.67 169.99 139.33 170.00 124.00 C 180.00 124.00 190.00 124.00 200.00 124.00 L 200.00 200.00 L 0.00 200.00 L 0.00 0.00 Z"></path>
<path fill="url(#svgLinkGradient)" d=" M 107.36 0.00 L 200.00 0.00 L 200.00 92.53 C 197.89 91.16 196.00 89.48 194.32 87.62 C 184.77 78.03 175.11 68.54 165.58 58.93 C 152.23 71.81 139.11 84.92 125.76 97.80 C 124.95 98.67 123.84 99.58 124.02 100.92 C 123.93 108.61 124.04 116.30 124.00 124.00 C 108.00 124.00 92.00 124.00 76.00 124.00 C 76.00 108.00 76.00 92.00 76.00 76.00 C 85.84 75.76 95.78 76.47 105.55 75.67 C 118.37 62.94 130.86 49.84 143.55 36.95 C 133.49 26.82 123.40 16.72 113.33 6.60 C 111.15 4.57 109.09 2.42 107.36 0.00 Z"></path>
</svg>