<svg width="32" height="27" fill="none" xmlns="http://www.w3.org/2000/svg"><path d="M31.488 3.143c.41-1.914-.683-2.666-1.914-2.188L2.367 11.415c-1.846.75-1.777 1.775-.273 2.255l6.904 2.12L25.131 5.671c.752-.547 1.504-.205.889.273L12.963 17.703l-.479 7.178c.752 0 1.026-.274 1.436-.684l3.35-3.281 7.04 5.195c1.3.752 2.256.342 2.598-1.162l4.58-21.806z" fill="url(#paint0_linear)"/><path d="M31.488 3.143L31 3.038v.002l.49.103zM29.574.955l.18.467h.001l-.18-.467zM2.367 11.415l-.18-.468-.008.004.188.463zm-.273 2.255l-.152.476.005.002.147-.478zm6.904 2.12l-.147.477.219.067.194-.121-.266-.424zM25.131 5.671l.265.423.015-.009.014-.01-.294-.404zm.889.273l-.307-.394-.015.01-.013.013.335.371zM12.963 17.703l-.335-.371-.15.135-.014.203.499.033zm-.479 7.178l-.498-.033-.036.533h.534v-.5zm1.436-.684l-.35-.357-.004.004.354.353zm3.35-3.281l.296-.402-.342-.253-.304.298.35.357zm7.04 5.195l-.296.403.022.016.024.014.25-.433zm2.598-1.162l.488.111.002-.008-.49-.103zm5.07-21.702c.222-1.041.067-1.916-.482-2.453-.558-.546-1.367-.591-2.103-.305l.362.932c.495-.192.848-.101 1.042.088.203.198.39.657.202 1.529l.978.21zM29.394.488L2.188 10.948l.359.933L29.754 1.42l-.36-.933zM2.179 10.951c-.495.201-.894.434-1.182.696-.285.26-.498.586-.522.966-.024.393.16.727.428.975.261.242.622.426 1.04.558l.302-.953c-.334-.106-.546-.23-.663-.338-.11-.103-.11-.162-.109-.18.002-.03.025-.13.198-.289.172-.156.456-.334.885-.509l-.377-.926zm-.232 3.197l6.904 2.12.294-.957-6.905-2.12-.293.957zm7.317 2.065L25.397 6.095l-.532-.847L8.732 15.365l.532.848zm16.16-10.137c.138-.1.263-.15.359-.172.104-.023.144-.006.13-.012a.234.234 0 0 1-.095-.074.327.327 0 0 1-.072-.218.267.267 0 0 1 .016-.08.134.134 0 0 1 .014-.028s-.015.021-.063.059l.613.789c.191-.148.405-.38.42-.693.017-.381-.256-.606-.482-.691-.419-.157-.972-.02-1.427.312l.588.808zm.26-.502L12.629 17.332l.67.743L26.353 6.317l-.67-.743zM12.465 17.67l-.479 7.178.998.066.479-7.178-.998-.066zm.02 7.71c.443 0 .787-.08 1.09-.25.285-.16.505-.385.7-.58l-.708-.706c-.215.215-.338.333-.48.413-.124.069-.292.124-.602.124v1zm1.786-.826l3.35-3.28-.7-.715-3.35 3.281.7.714zm2.703-3.236l7.04 5.196.594-.805-7.04-5.195-.594.804zm7.087 5.226c.715.414 1.457.578 2.11.29.652-.289 1.039-.95 1.226-1.774l-.975-.222c-.155.68-.418.976-.655 1.081-.235.104-.621.098-1.205-.24l-.501.865zm3.338-1.492l4.58-21.807L31 3.04l-4.58 21.806.979.206z" fill="#69F4F7"/><defs><linearGradient id="paint0_linear" x1="1" y1="14.26" x2="31.527" y2="14.26" gradientUnits="userSpaceOnUse"><stop stop-color="#32C8FD"/><stop offset="1" stop-color="#00EDED"/></linearGradient></defs></svg>