<?xml version="1.0" encoding="utf-8"?>
<!-- Generator: Adobe Illustrator 21.1.0, SVG Export Plug-In . SVG Version: 6.00 Build 0)  -->
<svg version="1.1" id="Layer_1" xmlns="http://www.w3.org/2000/svg" xmlns:xlink="http://www.w3.org/1999/xlink" x="0px" y="0px"
	 viewBox="0 0 313.7 240" style="enable-background:new 0 0 313.7 240;" xml:space="preserve">
<style type="text/css">
	.st0{fill:#0D7B88;}
	.st1{fill:#09B2B9;}
	.st2{fill:#21D2D9;}
	.st3{fill:#464646;}
</style>
<g>
	<polygon class="st0" points="313.7,154 159,0 120,0 120,18 159,57 159,56.5 256.1,154 	"/>
	<path class="st1" d="M0,0v115l39,39V0H0z"/>
	<path class="st0" d="M120,154v-39H39v39H120z"/>
	<path class="st1" d="M120,10l39,38v67l-39,39"/>
	<path class="st0" d="M244,30h39v39h-39V30z"/>
	<path class="st1" d="M259,15h39v39h-39V15z"/>
	<path class="st2" d="M274,0h39v39h-39V0z"/>
	<path class="st2" d="M159,0h-39v17.5l39,39"/>
	<polygon class="st1" points="228,125.8 256.1,154 313.7,154 228,68.7 	"/>
	<polygon class="st2" points="228,125.8 199.9,154 142.4,154 228,68.7 	"/>
</g>
<g>
	<g>
		<path class="st3" d="M14.3,230.4c0,2.4-0.4,4.1-1.2,5.1s-2.1,1.4-4.1,1.4c-2,0-3.3-0.5-4.1-1.4c-0.8-1-1.2-2.6-1.2-5.1v-14.5H0.4
			v14.5c0,3.5,0.7,5.9,2,7.4c1.3,1.4,3.6,2.2,6.8,2.2c3.1,0,5.3-0.7,6.6-2.2c1.3-1.4,1.9-3.9,1.9-7.4v-14.5h-3.4V230.4z M28.4,239.5
			h3.4v-23.6h-3.4V239.5z M59.6,215.9h-3.7l-5.2,10h-0.9l-5.2-10H41l6,11.4l-6.5,12.2h3.7l5.6-10.9h0.8l5.6,10.9h3.7l-6.5-12.2
			L59.6,215.9z M78.4,215.9h-3.5c-0.7,0-1.1,0.3-1.3,0.9l-7.4,22.7h3.5l2.2-7.1h9.4l2.2,7.1h3.5l-7.4-22.7
			C79.5,216.2,79.1,215.9,78.4,215.9z M72.9,229.4l2.8-9l0.5-1.9h0.9c0.1,0.2,0.2,0.5,0.3,1c0.1,0.4,0.2,0.8,0.3,1l2.8,9H72.9z
			 M108.2,234.9c-2,1.4-3.9,2.1-5.6,2.1c-1.8,0-3-0.7-3.7-2c-0.7-1.3-1-3.7-1-7.1c0-1.6,0.1-3,0.2-4.1c0.2-1.1,0.4-2,0.7-2.7
			c0.3-0.7,0.7-1.2,1.3-1.6c0.6-0.4,1.2-0.6,1.8-0.7c0.7-0.1,1.5-0.2,2.6-0.2c2.1,0,4.1,0.1,6,0.3l0.3-2.6c-1.9-0.5-4.1-0.7-6.6-0.7
			c-2.6,0-4.5,0.4-5.9,1.1c-1.4,0.7-2.4,1.9-3.1,3.7c-0.7,1.7-1,4.2-1,7.4c0,4.3,0.6,7.4,1.7,9.4c1.2,2,3,3,5.6,3c2.7,0,5-0.9,7-2.8
			l0.3,2.4h2.5v-13.6h-3.3V234.9z M125.5,219.3c0.3-0.3,0.8-0.5,1.5-0.5h9.4l0.2-2.7c-2.1-0.2-5.4-0.3-10.1-0.3
			c-1.5,0-2.6,0.4-3.5,1.1c-0.8,0.8-1.3,1.8-1.3,3.1v15.2c0,1.3,0.5,2.3,1.3,3.1c0.8,0.8,2,1.1,3.5,1.1c4.7,0,8-0.1,10.1-0.3
			l-0.2-2.6h-9.4c-0.7,0-1.2-0.2-1.5-0.5c-0.3-0.3-0.4-0.9-0.4-1.7v-6h9.9v-2.8h-9.9V221C125.1,220.2,125.2,219.6,125.5,219.3z
			 M161.2,232.5c0,1.1,0.1,2.3,0.2,3.7h-0.5c-0.2-0.4-0.3-0.8-0.5-1.2c-0.2-0.4-0.4-0.9-0.6-1.3c-0.2-0.5-0.4-0.8-0.5-1l-7.1-15.6
			c-0.3-0.7-0.8-1.1-1.5-1.1h-3.1c-0.9,0-1.3,0.4-1.3,1.3v22.2h3.4v-17.1c0-1.3-0.1-2.4-0.2-3.3h0.5c0.1,0.4,0.6,1.5,1.4,3.3
			l7.3,16.1c0.3,0.7,0.8,1.1,1.5,1.1h3.2c0.8,0,1.3-0.4,1.3-1.3v-22.2h-3.4V232.5z M183.9,236.9c-2.2,0-3.7-0.7-4.5-2
			c-0.8-1.3-1.2-3.7-1.2-7.2c0-3.5,0.4-5.9,1.2-7.2c0.8-1.3,2.3-2,4.5-2c2.3,0,4.4,0.1,6.2,0.3l0.3-2.6c-1.9-0.5-4.1-0.7-6.5-0.7
			c-3.4,0-5.9,0.9-7.2,2.7c-1.4,1.8-2.1,5-2.1,9.5c0,4.5,0.7,7.6,2.1,9.5c1.4,1.8,3.8,2.7,7.2,2.7c2.8,0,5.1-0.3,7-0.8l-0.3-2.6
			C189,236.8,186.8,236.9,183.9,236.9z M208.2,225.6c-0.2,0.4-0.5,1.3-1,2.7h-0.2c-0.5-1.4-0.8-2.3-1-2.7l-4.7-9.7h-3.6l7.8,15.4
			v8.2h3.4v-8.2l7.8-15.4H213L208.2,225.6z M224.5,235.3h-1.1c-0.5,0-0.8,0.1-1,0.3c-0.2,0.2-0.3,0.5-0.3,0.9v1.8
			c0,0.5,0.1,0.8,0.3,1c0.2,0.2,0.5,0.3,1,0.3h1.1c0.5,0,0.8-0.1,1-0.3c0.2-0.2,0.3-0.5,0.3-1v-1.8c0-0.5-0.1-0.8-0.3-0.9
			C225.3,235.4,224.9,235.3,224.5,235.3z M244.4,236.9c-2.2,0-3.7-0.7-4.5-2c-0.8-1.3-1.2-3.7-1.2-7.2c0-3.5,0.4-5.9,1.2-7.2
			c0.8-1.3,2.3-2,4.5-2c2.3,0,4.4,0.1,6.2,0.3l0.3-2.6c-1.9-0.5-4.1-0.7-6.5-0.7c-3.4,0-5.9,0.9-7.2,2.7c-1.4,1.8-2.1,5-2.1,9.5
			c0,4.5,0.7,7.6,2.1,9.5c1.4,1.8,3.8,2.7,7.2,2.7c2.8,0,5.1-0.3,7-0.8l-0.3-2.6C249.5,236.8,247.3,236.9,244.4,236.9z M268.7,215.5
			c-3.5,0-5.9,0.9-7.3,2.7c-1.4,1.8-2.1,5-2.1,9.6c0,4.6,0.7,7.8,2.1,9.6c1.4,1.8,3.8,2.7,7.3,2.7c3.5,0,6-0.9,7.3-2.7
			c1.4-1.8,2.1-5,2.1-9.6c0-4.6-0.7-7.8-2.1-9.6C274.7,216.4,272.2,215.5,268.7,215.5z M273.3,234.9c-0.8,1.3-2.4,2-4.6,2
			c-2.2,0-3.7-0.7-4.6-2c-0.8-1.3-1.2-3.7-1.2-7.2c0-3.5,0.4-5.9,1.2-7.2c0.8-1.3,2.4-2,4.6-2c2.2,0,3.7,0.7,4.6,2
			c0.8,1.3,1.3,3.7,1.3,7.2C274.6,231.2,274.1,233.6,273.3,234.9z M312,217.3c0-0.9-0.5-1.4-1.4-1.4h-3.7c-0.8,0-1.3,0.4-1.5,1.2
			l-4,13.8c-0.3,0.9-0.5,2-0.8,3.2H300c-0.3-1.3-0.6-2.4-0.8-3.2l-4-13.8c-0.3-0.8-0.7-1.2-1.4-1.2H290c-0.9,0-1.4,0.5-1.4,1.4
			l-0.9,22.2h3.4l0.8-20.7h0.6l4.8,16.8c0.2,0.8,0.7,1.2,1.5,1.2h3c0.8,0,1.3-0.4,1.5-1.2l4.8-16.8h0.7l0.8,20.7h3.4L312,217.3z"/>
	</g>
</g>
</svg>
